<?xml version="1.0" encoding="UTF-8"?>
<!DOCTYPE svg PUBLIC "-//W3C//DTD SVG 1.1//EN" "http://www.w3.org/Graphics/SVG/1.1/DTD/svg11.dtd">
<svg xmlns="http://www.w3.org/2000/svg" version="1.1" width="500px" height="500px" style="shape-rendering:geometricPrecision; text-rendering:geometricPrecision; image-rendering:optimizeQuality; fill-rule:evenodd; clip-rule:evenodd" xmlns:xlink="http://www.w3.org/1999/xlink">
<g><path style="opacity:0.993" fill="#daeff9" d="M 499.5,235.5 C 499.5,246.833 499.5,258.167 499.5,269.5C 498.973,274.172 497.973,278.839 496.5,283.5C 474.592,268.178 453.758,269.511 434,287.5C 424.111,298.78 420.611,311.78 423.5,326.5C 403.278,329.935 387.278,339.935 375.5,356.5C 359.531,355.479 348.197,362.145 341.5,376.5C 338.015,378.094 334.348,378.76 330.5,378.5C 330.963,367.806 328.629,357.806 323.5,348.5C 329.459,343.848 335.792,339.681 342.5,336C 342.5,334.667 342.5,333.333 342.5,332C 341.328,331.647 340.162,331.813 339,332.5C 338.05,331.978 337.216,331.311 336.5,330.5C 335.82,333.36 334.487,335.86 332.5,338C 328.108,340.409 323.442,341.909 318.5,342.5C 317.488,341.128 316.488,339.795 315.5,338.5C 318.892,332.28 321.058,325.614 322,318.5C 325.485,315.433 324.985,313.1 320.5,311.5C 319.695,309.085 318.695,306.751 317.5,304.5C 322.021,300.943 324.021,296.276 323.5,290.5C 320.157,291.224 316.824,292.057 313.5,293C 304.5,293.333 295.5,293.667 286.5,294C 284.137,294.589 283.137,296.089 283.5,298.5C 281.143,298.337 278.81,298.503 276.5,299C 274.777,299.775 273.777,301.108 273.5,303C 274.419,307.005 276.252,310.505 279,313.5C 279.49,314.793 279.657,316.127 279.5,317.5C 273.235,319.313 272.902,321.98 278.5,325.5C 272.56,325.735 266.893,327.069 261.5,329.5C 262.275,316.065 265.108,303.065 270,290.5C 274.622,281.591 278.955,272.591 283,263.5C 285.926,257.788 290.092,253.288 295.5,250C 297.833,249.333 300.167,249.333 302.5,250C 318.608,258.655 335.608,261.155 353.5,257.5C 354.766,256.91 356.099,256.41 357.5,256C 351.843,255.501 346.176,255.334 340.5,255.5C 328.377,254.405 317.71,249.905 308.5,242C 314.607,239.703 320.941,238.37 327.5,238C 338.493,237.223 349.493,236.556 360.5,236C 389.393,234.024 410.559,220.524 424,195.5C 413.881,209.294 400.714,218.794 384.5,224C 368.193,225.697 351.86,225.863 335.5,224.5C 329.265,224.147 323.265,223.147 317.5,221.5C 319.237,214.194 322.904,208.027 328.5,203C 336.833,198.667 345.167,194.333 353.5,190C 357.633,186.869 361.466,183.369 365,179.5C 365.667,178.833 365.667,178.167 365,177.5C 354.913,186.625 343.08,192.125 329.5,194C 320.552,197.386 313.719,203.219 309,211.5C 306.628,216.412 304.128,221.245 301.5,226C 284.146,233.968 275.979,228.468 277,209.5C 279.333,199.173 284.833,191.006 293.5,185C 319.829,172.2 332.829,151.034 332.5,121.5C 333.651,116.35 333.817,111.016 333,105.5C 332.498,108.513 331.998,111.513 331.5,114.5C 329.987,127.551 326.154,139.885 320,151.5C 318.951,153.618 317.451,155.284 315.5,156.5C 311.553,161.662 306.553,165.662 300.5,168.5C 299.644,165.861 299.81,163.194 301,160.5C 301.667,152.833 301.667,145.167 301,137.5C 299.885,151.475 295.052,163.975 286.5,175C 277.766,179.236 270.766,185.403 265.5,193.5C 264.003,178.509 258.169,165.509 248,154.5C 248.134,150.203 249.467,146.203 252,142.5C 257.333,136.5 262.667,130.5 268,124.5C 272.425,112.883 277.425,101.55 283,90.5C 287.643,84.5316 293.476,80.0316 300.5,77C 292.983,78.8514 286.483,82.6847 281,88.5C 278.333,92.5 275.667,96.5 273,100.5C 268.71,114.933 260.21,126.099 247.5,134C 245,137.167 242.5,140.333 240,143.5C 230.453,126.984 227.12,109.318 230,90.5C 233.394,82.7118 237.061,75.0451 241,67.5C 241.667,66.1667 241.667,64.8333 241,63.5C 235.935,73.2956 230.601,82.9623 225,92.5C 222.006,104.407 221.672,116.407 224,128.5C 225.66,134.142 227.16,139.809 228.5,145.5C 232.456,153.4 236.956,161.067 242,168.5C 247.185,178.548 248.851,189.215 247,200.5C 246.317,208.64 244.984,216.64 243,224.5C 240.948,200.698 229.615,183.031 209,171.5C 203.314,160.444 199.648,148.778 198,136.5C 197.162,147.131 197.496,157.798 199,168.5C 188.667,163.5 181,155.833 176,145.5C 171.913,135.151 169.08,124.485 167.5,113.5C 167.322,110.784 166.822,108.117 166,105.5C 165.19,109.358 165.357,113.024 166.5,116.5C 165.979,132.436 169.479,147.436 177,161.5C 185.713,172.214 196.213,180.714 208.5,187C 221.97,199.369 225.97,214.036 220.5,231C 218.833,231.167 217.167,231.333 215.5,231.5C 209.456,229.988 203.456,228.155 197.5,226C 193.587,216.17 187.92,207.504 180.5,200C 171.514,194.665 161.847,190.998 151.5,189C 147.78,187.14 144.114,185.307 140.5,183.5C 138.205,180.703 135.705,178.036 133,175.5C 132.333,176.167 132.333,176.833 133,177.5C 135.4,179.729 137.567,182.063 139.5,184.5C 142.31,187.136 145.31,189.636 148.5,192C 155.956,195.481 163.289,199.148 170.5,203C 176.143,208.445 180.143,214.945 182.5,222.5C 161.233,225.038 139.899,225.872 118.5,225C 101.107,220.267 86.9401,210.767 76,196.5C 87.5585,218.235 105.725,231.069 130.5,235C 147.176,236.239 163.843,237.572 180.5,239C 183.833,240 187.167,241 190.5,242C 180.892,249.801 169.892,254.301 157.5,255.5C 152.156,255.334 146.823,255.501 141.5,256C 142.745,256.791 144.078,257.291 145.5,257.5C 163.316,260.969 180.316,258.469 196.5,250C 202.658,248.328 207.491,250.162 211,255.5C 219.564,274.695 225.398,294.695 228.5,315.5C 228.46,317.429 228.127,319.262 227.5,321C 217.238,325.192 206.572,326.526 195.5,325C 194.483,323.951 194.316,322.784 195,321.5C 196.115,320 196.948,318.333 197.5,316.5C 200.824,315.841 202.157,313.841 201.5,310.5C 200.5,310.5 199.5,310.5 198.5,310.5C 198.285,306.734 196.951,303.4 194.5,300.5C 200.772,300.348 207.105,300.181 213.5,300C 216.875,298.971 218.042,296.804 217,293.5C 215.352,295.028 213.352,295.695 211,295.5C 206.234,294.579 201.567,293.246 197,291.5C 193.237,292.267 191.237,294.6 191,298.5C 186.706,296.752 182.206,296.085 177.5,296.5C 177.715,292.549 175.882,290.216 172,289.5C 167.192,291.737 162.192,293.404 157,294.5C 153.846,295.012 152.18,293.679 152,290.5C 151.51,291.793 151.343,293.127 151.5,294.5C 119.524,286.33 90.8577,292.663 65.5,313.5C 53.9749,304.295 41.6415,303.128 28.5,310C 20.5785,316.674 15.9118,325.174 14.5,335.5C 10.2416,325.554 7.0749,315.221 5,304.5C 2.4617,291.449 0.628368,278.449 -0.5,265.5C -0.5,256.833 -0.5,248.167 -0.5,239.5C 6.38916,154.528 45.0558,88.3618 115.5,41C 184.768,-0.412904 257.768,-8.4129 334.5,17C 415.665,48.8312 468.165,106.665 492,190.5C 495.494,205.481 497.994,220.481 499.5,235.5 Z M 176.5,309.5 C 177.675,309.281 178.675,309.614 179.5,310.5C 177.948,311.798 176.948,311.465 176.5,309.5 Z M 177.5,319.5 C 181.673,319.623 186.006,319.457 190.5,319C 186.331,324.805 181.997,324.972 177.5,319.5 Z"/></g>
<g><path style="opacity:1" fill="#13a25b" d="M 249.5,24.5 C 251.511,26.667 252.678,29.3337 253,32.5C 253.667,37.8333 253.667,43.1667 253,48.5C 251.25,53.2493 247.917,56.2493 243,57.5C 238.18,53.7072 236.513,48.7072 238,42.5C 240.584,35.6571 244.417,29.6571 249.5,24.5 Z"/></g>
<g><path style="opacity:1" fill="#9d308e" d="M 312.5,42.5 C 314.167,42.5 315.833,42.5 317.5,42.5C 318.105,48.2328 316.938,53.5661 314,58.5C 304.174,64.5318 300.174,61.8651 302,50.5C 304.94,46.9632 308.44,44.2965 312.5,42.5 Z"/></g>
<g><path style="opacity:1" fill="#fae836" d="M 262.5,53.5 C 264.5,53.5 266.5,53.5 268.5,53.5C 266.974,60.8506 262.974,66.3506 256.5,70C 247.901,72.404 245.401,69.5707 249,61.5C 252.897,57.6414 257.397,54.9747 262.5,53.5 Z"/></g>
<g><path style="opacity:1" fill="#9d308e" d="M 291.5,53.5 C 293.41,54.9746 294.576,56.9746 295,59.5C 295.667,63.8333 295.667,68.1667 295,72.5C 293.333,75.5 291,77.8333 288,79.5C 283.793,75.7323 282.46,71.0657 284,65.5C 285.933,61.0834 288.433,57.0834 291.5,53.5 Z"/></g>
<g><path style="opacity:1" fill="#ee8439" d="M 224.5,55.5 C 225.922,55.7086 227.255,56.2086 228.5,57C 230.333,59.5 232.167,62 234,64.5C 234.744,67.8708 234.244,71.0375 232.5,74C 229.72,74.2692 227.554,73.1025 226,70.5C 224.675,65.5988 224.175,60.5988 224.5,55.5 Z"/></g>
<g><path style="opacity:1" fill="#fbe834" d="M 316.5,62.5 C 321.58,62.2497 326.58,62.7497 331.5,64C 327.536,71.1348 321.536,75.3015 313.5,76.5C 307.352,76.5074 305.519,73.8407 308,68.5C 310.322,65.6047 313.155,63.6047 316.5,62.5 Z"/></g>
<g><path style="opacity:1" fill="#fbe833" d="M 174.5,63.5 C 175.496,63.4142 176.329,63.7476 177,64.5C 179.413,73.0074 180.08,81.6741 179,90.5C 177.266,96.4014 173.433,100.068 167.5,101.5C 163.727,100.219 161.56,97.5528 161,93.5C 160.333,90.5 160.333,87.5 161,84.5C 162.473,80.2211 164.473,76.2211 167,72.5C 170.088,69.9186 172.588,66.9186 174.5,63.5 Z"/></g>
<g><path style="opacity:1" fill="#ee8235" d="M 354.5,65.5 C 356.167,65.5 357.833,65.5 359.5,65.5C 360.326,72.3863 358.326,78.2196 353.5,83C 344.659,85.4798 341.493,82.3131 344,73.5C 346.806,69.8526 350.306,67.1859 354.5,65.5 Z"/></g>
<g><path style="opacity:1" fill="#92bf4e" d="M 207.5,66.5 C 217.229,69.4565 222.895,75.9565 224.5,86C 220.716,92.9452 216.216,93.1119 211,86.5C 207.972,80.1928 206.805,73.5261 207.5,66.5 Z"/></g>
<g><path style="opacity:1" fill="#ee8439" d="M 270.5,69.5 C 277.111,73.3875 279.944,79.0542 279,86.5C 274.064,89.1934 271.064,87.5268 270,81.5C 269.238,77.4126 269.404,73.4126 270.5,69.5 Z"/></g>
<g><path style="opacity:1" fill="#93bf50" d="M 330.5,74.5 C 338.953,80.4062 342.12,88.4062 340,98.5C 334.111,105.079 329.445,104.079 326,95.5C 324.91,87.9376 326.41,80.9376 330.5,74.5 Z"/></g>
<g><path style="opacity:0.978" fill="#5a3608" d="M 315.5,156.5 C 317.451,155.284 318.951,153.618 320,151.5C 326.154,139.885 329.987,127.551 331.5,114.5C 332.468,116.607 332.802,118.941 332.5,121.5C 332.829,151.034 319.829,172.2 293.5,185C 284.833,191.006 279.333,199.173 277,209.5C 275.979,228.468 284.146,233.968 301.5,226C 304.128,221.245 306.628,216.412 309,211.5C 313.719,203.219 320.552,197.386 329.5,194C 343.08,192.125 354.913,186.625 365,177.5C 365.667,178.167 365.667,178.833 365,179.5C 361.466,183.369 357.633,186.869 353.5,190C 345.167,194.333 336.833,198.667 328.5,203C 322.904,208.027 319.237,214.194 317.5,221.5C 316.596,222.209 316.263,223.209 316.5,224.5C 322.833,224.5 329.167,224.5 335.5,224.5C 351.86,225.863 368.193,225.697 384.5,224C 400.714,218.794 413.881,209.294 424,195.5C 410.559,220.524 389.393,234.024 360.5,236C 349.493,236.556 338.493,237.223 327.5,238C 320.941,238.37 314.607,239.703 308.5,242C 317.71,249.905 328.377,254.405 340.5,255.5C 344.833,256.167 349.167,256.833 353.5,257.5C 335.608,261.155 318.608,258.655 302.5,250C 300.167,249.333 297.833,249.333 295.5,250C 290.092,253.288 285.926,257.788 283,263.5C 278.955,272.591 274.622,281.591 270,290.5C 265.108,303.065 262.275,316.065 261.5,329.5C 260.198,334.644 261.865,338.144 266.5,340C 274.701,342.214 283.034,342.88 291.5,342C 289.759,340.38 287.925,338.88 286,337.5C 283.697,333.194 281.197,329.194 278.5,325.5C 272.902,321.98 273.235,319.313 279.5,317.5C 279.657,316.127 279.49,314.793 279,313.5C 276.252,310.505 274.419,307.005 273.5,303C 273.777,301.108 274.777,299.775 276.5,299C 278.81,298.503 281.143,298.337 283.5,298.5C 283.137,296.089 284.137,294.589 286.5,294C 295.5,293.667 304.5,293.333 313.5,293C 316.824,292.057 320.157,291.224 323.5,290.5C 324.021,296.276 322.021,300.943 317.5,304.5C 318.695,306.751 319.695,309.085 320.5,311.5C 324.985,313.1 325.485,315.433 322,318.5C 321.058,325.614 318.892,332.28 315.5,338.5C 312.953,339.934 310.619,341.6 308.5,343.5C 311.902,343.658 315.236,343.324 318.5,342.5C 323.442,341.909 328.108,340.409 332.5,338C 334.487,335.86 335.82,333.36 336.5,330.5C 337.216,331.311 338.05,331.978 339,332.5C 340.162,331.813 341.328,331.647 342.5,332C 342.5,333.333 342.5,334.667 342.5,336C 335.792,339.681 329.459,343.848 323.5,348.5C 318.591,349.181 314.091,350.848 310,353.5C 306.529,363.115 301.529,371.782 295,379.5C 293.957,382.757 293.457,386.09 293.5,389.5C 292.167,389.5 290.833,389.5 289.5,389.5C 288.795,392.244 288.795,394.911 289.5,397.5C 330.868,379.7 374.034,369.367 419,366.5C 429.091,374.423 437.591,383.756 444.5,394.5C 376.7,383.877 311.866,393.543 250,423.5C 187.811,393.473 122.644,383.973 54.5,395C 58.9714,388.561 63.8047,382.395 69,376.5C 72.39,372.607 76.2233,369.273 80.5,366.5C 121.166,369.332 160.499,377.832 198.5,392C 197.407,389.557 196.407,387.057 195.5,384.5C 192.893,383.682 190.226,383.182 187.5,383C 186.667,382.167 185.833,381.333 185,380.5C 182.597,373.691 180.931,366.691 180,359.5C 175.205,352.243 171.205,344.576 168,336.5C 155.159,334.329 143.992,328.829 134.5,320C 132.782,319.654 131.115,319.154 129.5,318.5C 129.106,316.47 128.773,314.137 128.5,311.5C 130.467,311.261 132.301,311.594 134,312.5C 134.833,311.5 135.667,310.5 136.5,309.5C 138.448,317.943 143.781,322.777 152.5,324C 158.919,325.615 165.419,326.782 172,327.5C 173.404,327.491 174.57,326.991 175.5,326C 173.622,324.457 172.122,322.624 171,320.5C 170.201,316.496 169.035,312.663 167.5,309C 169.112,307.518 170.112,305.685 170.5,303.5C 172.145,302.521 173.479,301.188 174.5,299.5C 171.342,298.667 168.342,299.001 165.5,300.5C 161.395,300.766 157.395,300.266 153.5,299C 151.963,297.89 151.297,296.39 151.5,294.5C 151.343,293.127 151.51,291.793 152,290.5C 152.18,293.679 153.846,295.012 157,294.5C 162.192,293.404 167.192,291.737 172,289.5C 175.882,290.216 177.715,292.549 177.5,296.5C 182.206,296.085 186.706,296.752 191,298.5C 191.237,294.6 193.237,292.267 197,291.5C 201.567,293.246 206.234,294.579 211,295.5C 213.352,295.695 215.352,295.028 217,293.5C 218.042,296.804 216.875,298.971 213.5,300C 207.105,300.181 200.772,300.348 194.5,300.5C 196.951,303.4 198.285,306.734 198.5,310.5C 199.5,310.5 200.5,310.5 201.5,310.5C 202.157,313.841 200.824,315.841 197.5,316.5C 196.948,318.333 196.115,320 195,321.5C 194.316,322.784 194.483,323.951 195.5,325C 206.572,326.526 217.238,325.192 227.5,321C 228.127,319.262 228.46,317.429 228.5,315.5C 225.398,294.695 219.564,274.695 211,255.5C 207.491,250.162 202.658,248.328 196.5,250C 180.316,258.469 163.316,260.969 145.5,257.5C 149.5,256.833 153.5,256.167 157.5,255.5C 169.892,254.301 180.892,249.801 190.5,242C 187.167,241 183.833,240 180.5,239C 163.843,237.572 147.176,236.239 130.5,235C 105.725,231.069 87.5585,218.235 76,196.5C 86.9401,210.767 101.107,220.267 118.5,225C 139.899,225.872 161.233,225.038 182.5,222.5C 180.143,214.945 176.143,208.445 170.5,203C 163.289,199.148 155.956,195.481 148.5,192C 145.31,189.636 142.31,187.136 139.5,184.5C 139.5,183.833 139.833,183.5 140.5,183.5C 144.114,185.307 147.78,187.14 151.5,189C 161.847,190.998 171.514,194.665 180.5,200C 187.92,207.504 193.587,216.17 197.5,226C 203.456,228.155 209.456,229.988 215.5,231.5C 217.167,231.333 218.833,231.167 220.5,231C 225.97,214.036 221.97,199.369 208.5,187C 196.213,180.714 185.713,172.214 177,161.5C 169.479,147.436 165.979,132.436 166.5,116.5C 166.263,115.209 166.596,114.209 167.5,113.5C 169.08,124.485 171.913,135.151 176,145.5C 181,155.833 188.667,163.5 199,168.5C 197.496,157.798 197.162,147.131 198,136.5C 199.648,148.778 203.314,160.444 209,171.5C 229.615,183.031 240.948,200.698 243,224.5C 244.984,216.64 246.317,208.64 247,200.5C 248.851,189.215 247.185,178.548 242,168.5C 236.956,161.067 232.456,153.4 228.5,145.5C 227.16,139.809 225.66,134.142 224,128.5C 221.672,116.407 222.006,104.407 225,92.5C 230.601,82.9623 235.935,73.2956 241,63.5C 241.667,64.8333 241.667,66.1667 241,67.5C 237.061,75.0451 233.394,82.7118 230,90.5C 227.12,109.318 230.453,126.984 240,143.5C 242.5,140.333 245,137.167 247.5,134C 260.21,126.099 268.71,114.933 273,100.5C 275.667,96.5 278.333,92.5 281,88.5C 286.483,82.6847 292.983,78.8514 300.5,77C 293.476,80.0316 287.643,84.5316 283,90.5C 277.425,101.55 272.425,112.883 268,124.5C 262.667,130.5 257.333,136.5 252,142.5C 249.467,146.203 248.134,150.203 248,154.5C 258.169,165.509 264.003,178.509 265.5,193.5C 270.766,185.403 277.766,179.236 286.5,175C 295.052,163.975 299.885,151.475 301,137.5C 301.667,145.167 301.667,152.833 301,160.5C 299.81,163.194 299.644,165.861 300.5,168.5C 306.553,165.662 311.553,161.662 315.5,156.5 Z M 176.5,309.5 C 176.948,311.465 177.948,311.798 179.5,310.5C 178.675,309.614 177.675,309.281 176.5,309.5 Z M 177.5,319.5 C 181.997,324.972 186.331,324.805 190.5,319C 186.006,319.457 181.673,319.623 177.5,319.5 Z M 278.5,325.5 C 281.197,329.194 283.697,333.194 286,337.5C 287.925,338.88 289.759,340.38 291.5,342C 283.034,342.88 274.701,342.214 266.5,340C 261.865,338.144 260.198,334.644 261.5,329.5C 266.893,327.069 272.56,325.735 278.5,325.5 Z M 304.5,330.5 C 305.71,330.932 306.71,331.599 307.5,332.5C 304.908,337.133 301.241,338.299 296.5,336C 294.5,334 292.5,332 290.5,330C 295.107,330.31 299.773,330.476 304.5,330.5 Z M 229.5,342.5 C 229.873,349.402 229.039,356.069 227,362.5C 220.484,359.244 214.484,355.244 209,350.5C 205.482,346.114 203.649,341.114 203.5,335.5C 213.375,333.468 222.042,335.802 229.5,342.5 Z M 315.5,338.5 C 316.488,339.795 317.488,341.128 318.5,342.5C 315.236,343.324 311.902,343.658 308.5,343.5C 310.619,341.6 312.953,339.934 315.5,338.5 Z M 261.5,342.5 C 267.361,346.055 273.694,348.555 280.5,350C 281.87,351.441 282.87,353.108 283.5,355C 281,359.5 278.5,364 276,368.5C 273.649,369.714 271.149,370.548 268.5,371C 267.953,371.925 267.287,372.758 266.5,373.5C 263.308,363.455 261.641,353.122 261.5,342.5 Z M 226.5,366.5 C 226.143,370.263 225.31,373.93 224,377.5C 222.421,375.959 220.587,374.792 218.5,374C 221.692,371.972 224.359,369.472 226.5,366.5 Z M 207.5,378.5 C 212.659,379.546 217.326,381.546 221.5,384.5C 219.944,389.28 217.611,393.613 214.5,397.5C 208.971,393.424 205.804,388.091 205,381.5C 206.045,380.627 206.878,379.627 207.5,378.5 Z M 268.5,381.5 C 272.378,381.864 276.378,381.864 280.5,381.5C 280.5,383.833 280.5,386.167 280.5,388.5C 281.5,388.5 282.5,388.5 283.5,388.5C 283.737,392.273 283.237,395.94 282,399.5C 281.225,401.223 279.892,402.223 278,402.5C 273.219,396.269 270.052,389.269 268.5,381.5 Z"/></g>
<g><path style="opacity:1" fill="#e93441" d="M 249.5,76.5 C 251.857,76.3367 254.19,76.5034 256.5,77C 253.938,83.8832 249.605,89.2165 243.5,93C 235.438,94.3728 233.272,91.2061 237,83.5C 240.739,80.2185 244.905,77.8852 249.5,76.5 Z"/></g>
<g><path style="opacity:1" fill="#12a15a" d="M 259.5,82.5 C 267.812,89.5921 270.312,98.2588 267,108.5C 263.627,113.239 260.294,112.905 257,107.5C 254.584,98.8287 255.417,90.4954 259.5,82.5 Z"/></g>
<g><path style="opacity:1" fill="#fae835" d="M 298.5,83.5 C 305.067,83.8765 310.4,86.7098 314.5,92C 309.167,94 303.833,94 298.5,92C 294.514,88.9845 294.514,86.1512 298.5,83.5 Z"/></g>
<g><path style="opacity:1" fill="#13aade" d="M 130.5,84.5 C 137.811,85.1292 144.811,86.9625 151.5,90C 157.238,93.642 159.571,98.8087 158.5,105.5C 153.261,107.22 148.261,106.72 143.5,104C 137.35,98.6881 133.016,92.1881 130.5,84.5 Z"/></g>
<g><path style="opacity:1" fill="#14a25b" d="M 357.5,86.5 C 361.884,86.1744 366.217,86.5078 370.5,87.5C 368.81,94.7253 364.81,100.225 358.5,104C 348.674,106.232 345.174,102.732 348,93.5C 350.825,90.524 353.992,88.1907 357.5,86.5 Z"/></g>
<g><path style="opacity:1" fill="#9d308e" d="M 193.5,93.5 C 200.335,94.7229 206.668,97.2229 212.5,101C 218.08,105.324 219.746,110.824 217.5,117.5C 213.269,119.015 209.269,118.515 205.5,116C 198.771,110 194.771,102.5 193.5,93.5 Z"/></g>
<g><path style="opacity:1" fill="#e72683" d="M 291.5,95.5 C 294.167,95.5 296.833,95.5 299.5,95.5C 298.008,100.643 295.342,105.143 291.5,109C 287.193,111.553 282.693,112.053 278,110.5C 277.448,107.581 278.115,104.914 280,102.5C 283.514,99.4999 287.347,97.1666 291.5,95.5 Z"/></g>
<g><path style="opacity:1" fill="#1cabdf" d="M 384.5,94.5 C 385.5,94.5 386.5,94.5 387.5,94.5C 388.129,101.838 385.796,108.004 380.5,113C 371.659,115.48 368.493,112.313 371,103.5C 371.465,102.069 372.299,100.903 373.5,100C 377.017,97.6738 380.683,95.8405 384.5,94.5 Z"/></g>
<g><path style="opacity:1" fill="#11a15a" d="M 243.5,99.5 C 245.335,100.122 246.502,101.456 247,103.5C 250.272,110.527 250.272,117.527 247,124.5C 243.868,129.018 240.535,129.351 237,125.5C 235.056,120.193 235.056,114.86 237,109.5C 238.996,106.014 241.163,102.681 243.5,99.5 Z"/></g>
<g><path style="opacity:1" fill="#ee8235" d="M 313.5,102.5 C 316.378,110.123 315.878,117.79 312,125.5C 309.597,128.202 306.597,129.869 303,130.5C 299.816,126.772 298.816,122.439 300,117.5C 303.142,111.17 307.642,106.17 313.5,102.5 Z"/></g>
<g><path style="opacity:1" fill="#e93340" d="M 180.5,103.5 C 181.461,105.265 181.795,107.265 181.5,109.5C 181.108,114.883 178.442,118.549 173.5,120.5C 172.558,120.392 171.725,120.059 171,119.5C 170.051,111.906 173.218,106.572 180.5,103.5 Z"/></g>
<g><path style="opacity:1" fill="#e57480" d="M 180.5,103.5 C 180.56,102.957 180.893,102.624 181.5,102.5C 182.797,104.973 182.797,107.307 181.5,109.5C 181.795,107.265 181.461,105.265 180.5,103.5 Z"/></g>
<g><path style="opacity:1" fill="#9a927f" d="M 167.5,113.5 C 166.596,114.209 166.263,115.209 166.5,116.5C 165.357,113.024 165.19,109.358 166,105.5C 166.822,108.117 167.322,110.784 167.5,113.5 Z"/></g>
<g><path style="opacity:1" fill="#8a7b62" d="M 332.5,121.5 C 332.802,118.941 332.468,116.607 331.5,114.5C 331.998,111.513 332.498,108.513 333,105.5C 333.817,111.016 333.651,116.35 332.5,121.5 Z"/></g>
<g><path style="opacity:1" fill="#13a25b" d="M 185.5,109.5 C 193.695,112.205 198.362,117.872 199.5,126.5C 198.355,134.666 194.855,135.666 189,129.5C 185.885,123.216 184.718,116.549 185.5,109.5 Z"/></g>
<g><path style="opacity:1" fill="#fbe837" d="M 135.5,110.5 C 141.105,111.466 146.439,113.299 151.5,116C 156.559,119.612 158.726,124.446 158,130.5C 154.127,131.886 150.294,131.72 146.5,130C 140.103,125.04 136.437,118.54 135.5,110.5 Z"/></g>
<g><path style="opacity:1" fill="#ee8338" d="M 352.5,111.5 C 354.604,111.201 356.604,111.534 358.5,112.5C 356.138,118.695 352.138,123.528 346.5,127C 343.183,127.498 339.85,127.665 336.5,127.5C 336.16,123.869 336.994,120.536 339,117.5C 343.12,114.414 347.62,112.414 352.5,111.5 Z"/></g>
<g><path style="opacity:1" fill="#fbe833" d="M 282.5,115.5 C 287.837,118.671 292.003,123.004 295,128.5C 296.859,141.679 293.193,143.679 284,134.5C 282.683,128.243 282.183,121.909 282.5,115.5 Z"/></g>
<g><path style="opacity:1" fill="#93bf4e" d="M 382.5,116.5 C 385.247,116.187 387.914,116.52 390.5,117.5C 388.527,122.779 386.027,127.779 383,132.5C 378.376,137.331 372.876,138.665 366.5,136.5C 363.766,129.19 365.766,123.69 372.5,120C 375.85,118.514 379.184,117.347 382.5,116.5 Z"/></g>
<g><path style="opacity:1" fill="#ee8336" d="M 182.5,120.5 C 183.645,124.311 183.812,128.311 183,132.5C 181.376,136.512 179.042,137.512 176,135.5C 175.333,133.167 175.333,130.833 176,128.5C 177.946,125.58 180.113,122.913 182.5,120.5 Z"/></g>
<g><path style="opacity:1" fill="#e9313f" d="M 407.5,121.5 C 409.167,121.5 410.833,121.5 412.5,121.5C 411.324,129.685 407.658,136.519 401.5,142C 397.637,143.354 393.637,143.854 389.5,143.5C 388.993,138.879 389.826,134.546 392,130.5C 396.6,126.374 401.766,123.374 407.5,121.5 Z"/></g>
<g><path style="opacity:1" fill="#9d308e" d="M 425.5,126.5 C 433.508,135.705 435.342,146.038 431,157.5C 427.851,162.629 424.185,163.296 420,159.5C 416.056,153.548 415.389,147.215 418,140.5C 420.258,135.647 422.758,130.981 425.5,126.5 Z"/></g>
<g><path style="opacity:1" fill="#14a25b" d="M 346.5,135.5 C 350.846,135.334 355.179,135.501 359.5,136C 356.564,142.202 352.231,147.202 346.5,151C 342.54,152.663 338.54,152.83 334.5,151.5C 333.201,148.423 333.368,145.423 335,142.5C 338.257,139.048 342.09,136.715 346.5,135.5 Z"/></g>
<g><path style="opacity:1" fill="#e93743" d="M 228.5,145.5 C 228.426,147.411 227.426,148.578 225.5,149C 223.167,149.667 220.833,149.667 218.5,149C 204.508,138.945 206.175,135.945 223.5,140C 225.749,141.352 227.416,143.185 228.5,145.5 Z"/></g>
<g><path style="opacity:1" fill="#fae837" d="M 315.5,156.5 C 311.49,157.402 308.656,155.735 307,151.5C 304.566,135.739 307.566,134.406 316,147.5C 316.634,150.555 316.468,153.555 315.5,156.5 Z"/></g>
<g><path style="opacity:1" fill="#e9313f" d="M 145.5,139.5 C 152.196,138.849 158.529,140.015 164.5,143C 169.13,146.451 169.463,150.117 165.5,154C 153.549,156.96 143.882,153.46 136.5,143.5C 139.412,141.76 142.412,140.427 145.5,139.5 Z"/></g>
<g><path style="opacity:1" fill="#ee8336" d="M 187.5,138.5 C 192.866,143.557 194.366,149.557 192,156.5C 190,159.167 188,159.167 186,156.5C 183.789,150.276 184.289,144.276 187.5,138.5 Z"/></g>
<g><path style="opacity:1" fill="#1cabdf" d="M 264.5,142.5 C 266.5,142.5 268.5,142.5 270.5,142.5C 268.221,151.313 262.721,154.98 254,153.5C 252.824,149.74 253.99,146.907 257.5,145C 259.927,144.098 262.26,143.264 264.5,142.5 Z"/></g>
<g><path style="opacity:1" fill="#14aadf" d="M 116.5,145.5 C 121.932,148.308 126.765,151.974 131,156.5C 134.053,161.616 134.22,166.783 131.5,172C 124.468,171.988 119.968,168.488 118,161.5C 116.809,156.233 116.309,150.899 116.5,145.5 Z"/></g>
<g><path style="opacity:1" fill="#e93441" d="M 377.5,150.5 C 378.497,150.47 379.164,150.97 379.5,152C 380.905,157.217 380.738,162.384 379,167.5C 376.609,172.614 372.776,174.281 367.5,172.5C 364.508,167.128 365.008,162.128 369,157.5C 371.628,154.79 374.461,152.456 377.5,150.5 Z"/></g>
<g><path style="opacity:1" fill="#e72281" d="M 403.5,152.5 C 404.814,154.915 405.481,157.748 405.5,161C 406.321,168.539 403.988,174.873 398.5,180C 391.762,182.958 388.429,180.625 388.5,173C 389.047,169.075 390.547,165.575 393,162.5C 396.396,158.935 399.896,155.602 403.5,152.5 Z"/></g>
<g><path style="opacity:1" fill="#ea3340" d="M 53.5,155.5 C 65.6078,160.444 73.2745,169.277 76.5,182C 76.2043,185.387 75.2043,188.554 73.5,191.5C 67.7162,192.203 62.8828,190.203 59,185.5C 54.1171,176.083 52.2838,166.083 53.5,155.5 Z"/></g>
<g><path style="opacity:1" fill="#19abdf" d="M 229.5,154.5 C 230.549,159.282 229.715,163.949 227,168.5C 218.634,173.904 215.967,171.904 219,162.5C 221.94,158.963 225.44,156.297 229.5,154.5 Z"/></g>
<g><path style="opacity:1" fill="#e71e80" d="M 444.5,155.5 C 447.491,164.863 446.658,174.196 442,183.5C 438.263,190.023 432.763,192.356 425.5,190.5C 422.679,184.394 422.845,178.394 426,172.5C 431.111,165.55 437.278,159.883 444.5,155.5 Z"/></g>
<g><path style="opacity:1" fill="#17aadf" d="M 272.5,156.5 C 274.41,157.975 275.576,159.975 276,162.5C 277.11,168.426 276.444,174.092 274,179.5C 269.824,183.996 266.824,183.329 265,177.5C 264.097,169.302 266.597,162.302 272.5,156.5 Z"/></g>
<g><path style="opacity:1" fill="#fbe837" d="M 163.5,160.5 C 164.496,160.414 165.329,160.748 166,161.5C 167.104,170.271 164.604,177.771 158.5,184C 156.553,184.991 154.553,185.325 152.5,185C 149.724,180.085 149.891,175.252 153,170.5C 156.396,166.935 159.896,163.602 163.5,160.5 Z"/></g>
<g><path style="opacity:1" fill="#17aadf" d="M 331.5,160.5 C 333.48,161.848 334.647,163.848 335,166.5C 335.667,171.833 335.667,177.167 335,182.5C 333.32,186.846 330.32,189.846 326,191.5C 319.839,185.764 318.839,179.097 323,171.5C 325.358,167.442 328.192,163.775 331.5,160.5 Z"/></g>
<g><path style="opacity:1" fill="#15aadf" d="M 355.5,162.5 C 356.5,162.5 357.5,162.5 358.5,162.5C 358.817,169.721 356.484,175.887 351.5,181C 344.063,184.591 341.229,182.424 343,174.5C 346.018,169.252 350.185,165.252 355.5,162.5 Z"/></g>
<g><path style="opacity:1" fill="#0ea159" d="M 95.5,172.5 C 103.39,181.564 105.557,191.897 102,203.5C 100.16,205.84 97.9931,207.84 95.5,209.5C 89.7978,205.93 87.1311,200.763 87.5,194C 88.0984,186.035 90.7651,178.869 95.5,172.5 Z"/></g>
<g><path style="opacity:1" fill="#816b4d" d="M 140.5,183.5 C 139.833,183.5 139.5,183.833 139.5,184.5C 137.567,182.063 135.4,179.729 133,177.5C 132.333,176.833 132.333,176.167 133,175.5C 135.705,178.036 138.205,180.703 140.5,183.5 Z"/></g>
<g><path style="opacity:1" fill="#1aabdf" d="M 407.5,178.5 C 415.342,185.516 417.176,193.849 413,203.5C 411.758,204.872 410.258,205.872 408.5,206.5C 401.595,201.734 399.761,195.401 403,187.5C 404.513,184.473 406.013,181.473 407.5,178.5 Z"/></g>
<g><path style="opacity:1" fill="#9d318e" d="M 176.5,181.5 C 184.051,179.863 190.051,182.03 194.5,188C 190.61,192.852 185.61,194.519 179.5,193C 175.172,191.171 171.172,188.838 167.5,186C 170.592,184.454 173.592,182.954 176.5,181.5 Z"/></g>
<g><path style="opacity:1" fill="#9d328f" d="M 368.5,180.5 C 373.849,180.342 378.849,181.509 383.5,184C 378.573,189.198 372.573,191.198 365.5,190C 364.313,188.981 363.313,187.814 362.5,186.5C 364.215,184.118 366.215,182.118 368.5,180.5 Z"/></g>
<g><path style="opacity:1" fill="#9d318f" d="M 115.5,181.5 C 123.699,180.1 130.865,182.1 137,187.5C 140.957,191.751 140.124,194.585 134.5,196C 131.5,196.667 128.5,196.667 125.5,196C 119.252,193.409 114.752,189.243 112,183.5C 113.302,182.915 114.469,182.249 115.5,181.5 Z"/></g>
<g><path style="opacity:1" fill="#9d328f" d="M 296.5,185.5 C 301.783,185.118 306.783,186.118 311.5,188.5C 306.967,194.513 300.967,196.679 293.5,195C 291.82,194.653 290.82,193.653 290.5,192C 292.014,189.322 294.014,187.155 296.5,185.5 Z"/></g>
<g><path style="opacity:1" fill="#9d328f" d="M 440.5,189.5 C 446.994,189.166 453.327,189.999 459.5,192C 453.319,201.424 444.652,205.424 433.5,204C 431.939,203.059 430.605,201.892 429.5,200.5C 431.55,195.116 435.217,191.45 440.5,189.5 Z"/></g>
<g><path style="opacity:1" fill="#e9313f" d="M 201.5,193.5 C 204.485,199.68 203.485,205.514 198.5,211C 196.635,212.301 194.635,212.635 192.5,212C 191.383,208.927 191.216,205.76 192,202.5C 195.062,199.268 198.229,196.268 201.5,193.5 Z"/></g>
<g><path style="opacity:1" fill="#ee8236" d="M 391.5,192.5 C 393.397,194.269 394.564,196.602 395,199.5C 397.89,209.214 395.057,216.547 386.5,221.5C 381.812,217.978 380.312,213.311 382,207.5C 384.206,201.814 387.372,196.814 391.5,192.5 Z"/></g>
<g><path style="opacity:1" fill="#93bf4f" d="M 50.5,196.5 C 54.5138,196.334 58.5138,196.501 62.5,197C 69.4149,198.872 70.9149,202.706 67,208.5C 62.9205,212.641 57.9205,214.641 52,214.5C 45.7346,214.309 39.9012,212.642 34.5,209.5C 39.2727,204.386 44.606,200.052 50.5,196.5 Z"/></g>
<g><path style="opacity:1" fill="#ee8235" d="M 150.5,199.5 C 156.021,198.594 160.688,200.094 164.5,204C 162.749,207.42 160.082,209.754 156.5,211C 150.015,212.069 144.015,210.903 138.5,207.5C 142.255,204.302 146.255,201.635 150.5,199.5 Z"/></g>
<g><path style="opacity:1" fill="#1dabdf" d="M 337.5,199.5 C 344.66,199.941 350.993,202.441 356.5,207C 349.358,212.684 341.691,213.684 333.5,210C 332.101,208.938 331.101,207.605 330.5,206C 332.089,202.906 334.422,200.74 337.5,199.5 Z"/></g>
<g><path style="opacity:1" fill="#fae83c" d="M 117.5,201.5 C 122.093,206.96 122.593,212.96 119,219.5C 114.277,222.009 111.777,220.343 111.5,214.5C 112.168,209.5 114.168,205.167 117.5,201.5 Z"/></g>
<g><path style="opacity:1" fill="#9d308e" d="M 370.5,202.5 C 371.5,202.5 372.5,202.5 373.5,202.5C 373.324,209.702 370.99,216.035 366.5,221.5C 358.559,225.475 355.392,223.142 357,214.5C 360.454,209.206 364.954,205.206 370.5,202.5 Z"/></g>
<g><path style="opacity:1" fill="#9d2f8e" d="M 424.5,207.5 C 430.445,206.62 435.779,207.954 440.5,211.5C 435.997,215.721 430.664,217.221 424.5,216C 420.605,213.178 420.605,210.345 424.5,207.5 Z"/></g>
<g><path style="opacity:1" fill="#17abdf" d="M 409.5,218.5 C 417.349,217.674 423.183,220.674 427,227.5C 428.793,231.046 430.293,234.713 431.5,238.5C 424.91,239.029 418.91,237.196 413.5,233C 409.194,228.923 407.86,224.09 409.5,218.5 Z"/></g>
<g><path style="opacity:1" fill="#ea3441" d="M 74.5,219.5 C 79.9513,218.779 84.7847,220.112 89,223.5C 91.2413,227.119 90.408,229.952 86.5,232C 77.0751,234.751 68.7418,232.751 61.5,226C 65.6467,223.26 69.98,221.093 74.5,219.5 Z"/></g>
<g><path style="opacity:1" fill="#867459" d="M 317.5,221.5 C 323.265,223.147 329.265,224.147 335.5,224.5C 329.167,224.5 322.833,224.5 316.5,224.5C 316.263,223.209 316.596,222.209 317.5,221.5 Z"/></g>
<g><path style="opacity:1" fill="#fbe832" d="M 415.5,248.5 C 412.713,249.477 409.713,249.81 406.5,249.5C 394.795,249.524 388.461,243.858 387.5,232.5C 396.631,229.711 404.131,232.044 410,239.5C 412.358,242.222 414.191,245.222 415.5,248.5 Z"/></g>
<g><path style="opacity:1" fill="#93bf4f" d="M 94.5,232.5 C 106.15,230.669 108.65,234.669 102,244.5C 95.8128,248.592 88.9795,250.925 81.5,251.5C 83.6097,243.604 87.9431,237.271 94.5,232.5 Z"/></g>
<g><path style="opacity:1" fill="#ee8337" d="M 111.5,237.5 C 120.775,236.722 127.942,240.389 133,248.5C 133.814,250.902 133.647,253.235 132.5,255.5C 126.08,257.05 120.913,255.05 117,249.5C 114.854,245.525 113.02,241.525 111.5,237.5 Z"/></g>
<g><path style="opacity:1" fill="#e72482" d="M 372.5,239.5 C 376.167,239.5 379.833,239.5 383.5,239.5C 382.385,248.426 377.552,254.093 369,256.5C 362.796,255.969 360.796,252.635 363,246.5C 365.529,243.115 368.696,240.782 372.5,239.5 Z"/></g>
<g><path style="opacity:1" fill="#e93441" d="M 158.5,240.5 C 161.545,240.508 164.545,240.841 167.5,241.5C 168.298,245.703 166.631,248.37 162.5,249.5C 157.767,250.933 153.1,250.766 148.5,249C 151.438,245.551 154.771,242.718 158.5,240.5 Z"/></g>
<g><path style="opacity:1" fill="#ea3944" d="M 320.5,240.5 C 327.592,239.807 333.258,242.307 337.5,248C 330.669,251.934 324.503,251.101 319,245.5C 318.387,243.505 318.887,241.838 320.5,240.5 Z"/></g>
<g><path style="opacity:1" fill="#e7edaf" d="M 415.5,248.5 C 416.043,248.56 416.376,248.893 416.5,249.5C 413.02,250.806 409.687,250.806 406.5,249.5C 409.713,249.81 412.713,249.477 415.5,248.5 Z"/></g>
<g><path style="opacity:1" fill="#e72582" d="M 382.5,250.5 C 387.351,249.784 391.518,251.117 395,254.5C 405.846,272.921 402.512,275.587 385,262.5C 382.868,258.792 382.035,254.792 382.5,250.5 Z"/></g>
<g><path style="opacity:1" fill="#fafdfe" d="M 452.5,247.5 C 452.21,254.574 455.543,258.908 462.5,260.5C 455.465,261.876 452.298,266.209 453,273.5C 453.5,264.667 449.333,260.5 440.5,261C 449.226,260.771 453.226,256.271 452.5,247.5 Z"/></g>
<g><path style="opacity:1" fill="#958b76" d="M 340.5,255.5 C 346.176,255.334 351.843,255.501 357.5,256C 356.099,256.41 354.766,256.91 353.5,257.5C 349.167,256.833 344.833,256.167 340.5,255.5 Z"/></g>
<g><path style="opacity:1" fill="#968c78" d="M 157.5,255.5 C 153.5,256.167 149.5,256.833 145.5,257.5C 144.078,257.291 142.745,256.791 141.5,256C 146.823,255.501 152.156,255.334 157.5,255.5 Z"/></g>
<g><path style="opacity:1" fill="#0fa159" d="M 111.5,259.5 C 114.85,259.335 118.183,259.502 121.5,260C 125.638,261.436 126.471,263.936 124,267.5C 121.688,271.58 118.188,274.08 113.5,275C 107.472,275.83 101.472,275.664 95.5,274.5C 99.5958,268.067 104.929,263.067 111.5,259.5 Z"/></g>
<g><path style="opacity:1" fill="#0ca159" d="M 149.5,260.5 C 164.662,260.514 166.662,266.014 155.5,277C 147.898,281.07 139.898,282.236 131.5,280.5C 135.225,271.666 141.225,264.999 149.5,260.5 Z"/></g>
<g><path style="opacity:1" fill="#1ba35e" d="M 351.5,260.5 C 359.529,260.355 364.029,264.355 365,272.5C 365.781,273.944 365.614,275.277 364.5,276.5C 355.651,274.665 351.317,269.332 351.5,260.5 Z"/></g>
<g><path style="opacity:1" fill="#16a25c" d="M 324.5,261.5 C 333.244,262.073 338.411,266.739 340,275.5C 340.667,279.5 340.667,283.5 340,287.5C 334.085,284.579 329.085,280.579 325,275.5C 321.845,270.919 321.679,266.252 324.5,261.5 Z"/></g>
<g><path style="opacity:1" fill="#96c157" d="M 173.5,262.5 C 177.784,263.385 179.284,266.051 178,270.5C 176.503,275.168 173.67,278.834 169.5,281.5C 166.05,274.042 167.383,267.708 173.5,262.5 Z"/></g>
<g><path style="opacity:0.804" fill="#d1e1e7" d="M 170.5,303.5 C 168.632,302.737 166.965,301.737 165.5,300.5C 168.342,299.001 171.342,298.667 174.5,299.5C 173.479,301.188 172.145,302.521 170.5,303.5 Z"/></g>
<g><path style="opacity:1" fill="#99917e" d="M 307.5,315.5 C 308.873,315.343 310.207,315.51 311.5,316C 309.152,316.346 307.319,317.513 306,319.5C 305.7,317.934 306.2,316.601 307.5,315.5 Z"/></g>
<g><path style="opacity:0.921" fill="#d4e6ed" d="M 229.5,342.5 C 222.042,335.802 213.375,333.468 203.5,335.5C 203.414,334.504 203.748,333.671 204.5,333C 213.294,331.958 221.46,329.124 229,324.5C 230.125,327.478 230.625,330.645 230.5,334C 230.498,337.021 230.164,339.854 229.5,342.5 Z"/></g>
<g><path style="opacity:0.829" fill="#cbd9dc" d="M 307.5,332.5 C 306.71,331.599 305.71,330.932 304.5,330.5C 306.608,329.225 308.942,328.725 311.5,329C 310.897,331.071 309.564,332.238 307.5,332.5 Z"/></g>
<g><path style="opacity:0.91" fill="#00a8de" d="M 110.5,398.5 C 159.239,396.781 205.572,406.448 249.5,427.5C 305.583,400.208 364.25,392.375 425.5,404C 435.399,406.058 445.066,408.891 454.5,412.5C 458.731,418.946 461.231,425.946 462,433.5C 403.909,406.896 344.075,402.396 282.5,420C 271.393,423.536 260.393,427.369 249.5,431.5C 185.96,404.789 121.627,402.622 56.5,425C 49.9577,427.348 43.6244,430.182 37.5,433.5C 37.1667,433 36.8333,432.5 36.5,432C 38.1896,424.63 41.1896,417.963 45.5,412C 66.7341,404.721 88.4007,400.221 110.5,398.5 Z"/></g>
<g><path style="opacity:0.908" fill="#e7167d" d="M 134.5,415.5 C 174.326,414.554 212.826,421.221 250,435.5C 305.046,413.522 361.213,410.022 418.5,425C 433.061,429.298 447.061,434.964 460.5,442C 462.649,443.152 464.482,444.652 466,446.5C 467.35,452.831 467.517,459.164 466.5,465.5C 417.382,432.771 363.382,419.938 304.5,427C 285.771,429.432 267.438,433.599 249.5,439.5C 187.619,418.883 126.619,421.049 66.5,446C 54.6775,451.742 43.3442,458.242 32.5,465.5C 31.7327,458.986 32.0661,452.486 33.5,446C 50.2343,435.64 68.2343,427.974 87.5,423C 103.127,419.318 118.794,416.818 134.5,415.5 Z"/></g>
<g><path style="opacity:0.904" fill="#90be49" d="M 161.5,430.5 C 191.367,429.9 220.701,433.567 249.5,441.5C 291.418,429.505 333.751,427.672 376.5,436C 409.708,443.357 439.542,457.524 466,478.5C 466.312,484.776 465.145,490.776 462.5,496.5C 400.418,443.898 329.418,426.564 249.5,444.5C 178.792,428.391 113.792,440.891 54.5,482C 49.1667,486.667 43.8333,491.333 38.5,496C 37.552,496.483 36.552,496.649 35.5,496.5C 34.5025,491.178 33.5025,485.845 32.5,480.5C 60.6498,456.098 93.3165,440.765 130.5,434.5C 140.944,432.861 151.277,431.527 161.5,430.5 Z"/></g>
</svg>
