<?xml version="1.0" encoding="UTF-8"?>
<!DOCTYPE svg PUBLIC "-//W3C//DTD SVG 1.1//EN" "http://www.w3.org/Graphics/SVG/1.1/DTD/svg11.dtd">
<svg xmlns="http://www.w3.org/2000/svg" version="1.1" width="1129px" height="663px" style="shape-rendering:geometricPrecision; text-rendering:geometricPrecision; image-rendering:optimizeQuality; fill-rule:evenodd; clip-rule:evenodd" xmlns:xlink="http://www.w3.org/1999/xlink">
<g><path style="opacity:0.984" fill="#dbf0f9" d="M 662.5,462.5 C 662.414,461.504 662.748,460.671 663.5,460C 669.684,457.152 675.351,453.485 680.5,449C 682.058,448.79 683.391,448.29 684.5,447.5C 685.5,447.5 686.5,447.5 687.5,447.5C 687.5,444.833 687.5,442.167 687.5,439.5C 686.209,439.263 685.209,439.596 684.5,440.5C 682.738,440.643 681.071,440.309 679.5,439.5C 675.719,448.491 668.885,453.491 659,454.5C 657.408,454.395 655.908,454.061 654.5,453.5C 653.488,452.128 652.488,450.795 651.5,449.5C 653.025,445.444 654.859,441.444 657,437.5C 658.476,432.594 659.476,427.594 660,422.5C 663.918,420.665 664.418,418.165 661.5,415C 660.207,414.51 658.873,414.343 657.5,414.5C 657.055,410.665 655.722,407.165 653.5,404C 657.149,401.192 659.816,397.692 661.5,393.5C 662.477,390.713 662.81,387.713 662.5,384.5C 661.209,384.263 660.209,384.596 659.5,385.5C 654.506,388.082 649.173,389.415 643.5,389.5C 633.494,389.334 623.494,389.5 613.5,390C 612.263,390.232 611.263,390.732 610.5,391.5C 609.859,392.482 609.193,393.482 608.5,394.5C 604.538,394.942 600.871,396.109 597.5,398C 595.131,400.938 594.964,404.104 597,407.5C 598.944,411.11 601.277,414.443 604,417.5C 604.494,419.134 604.66,420.801 604.5,422.5C 598.887,421.079 596.72,423.079 598,428.5C 599.98,429.749 601.813,431.082 603.5,432.5C 595.336,432.265 587.67,433.931 580.5,437.5C 581.113,418.825 584.946,400.825 592,383.5C 598.41,372.194 604.076,360.528 609,348.5C 612.501,341.335 617.668,335.835 624.5,332C 627.5,331.333 630.5,331.333 633.5,332C 640.16,334.654 646.827,337.321 653.5,340C 666.488,343.413 679.488,344.246 692.5,342.5C 695.167,342.167 697.833,341.833 700.5,341.5C 702.89,341.087 705.223,340.421 707.5,339.5C 706.667,339.167 705.833,338.833 705,338.5C 698.869,339.394 692.702,339.727 686.5,339.5C 684.833,339.5 683.167,339.5 681.5,339.5C 679.343,338.593 677.01,337.927 674.5,337.5C 671.703,336.069 669.036,334.402 666.5,332.5C 671.201,332.043 675.868,331.376 680.5,330.5C 675.367,320.607 667.367,317.274 656.5,320.5C 654.897,320.688 653.563,320.188 652.5,319C 657.702,318.131 662.702,316.964 667.5,315.5C 677.06,315.892 686.393,315.225 695.5,313.5C 703.514,313.432 711.514,313.099 719.5,312.5C 724.124,312.237 728.458,311.237 732.5,309.5C 739.826,307.67 746.826,305.003 753.5,301.5C 770.378,292.623 783.711,279.957 793.5,263.5C 795.416,262.335 796.249,260.668 796,258.5C 794.519,259.471 793.685,260.804 793.5,262.5C 783.086,274.748 770.753,284.581 756.5,292C 751.491,293.383 746.824,295.217 742.5,297.5C 739.391,297.264 736.391,297.597 733.5,298.5C 722.167,298.5 710.833,298.5 699.5,298.5C 690.171,298.078 680.837,297.745 671.5,297.5C 665.265,297.147 659.265,296.147 653.5,294.5C 656.847,282.629 663.514,273.129 673.5,266C 683.112,261.861 692.446,257.194 701.5,252C 707.003,247.663 712.003,242.83 716.5,237.5C 717.452,236.548 718.452,235.548 719.5,234.5C 717.655,233.605 716.322,234.272 715.5,236.5C 710.725,241.059 705.392,244.893 699.5,248C 688.938,251.641 678.272,254.974 667.5,258C 659.511,261.982 652.677,267.482 647,274.5C 641.534,282.594 636.701,291.094 632.5,300C 628.286,300.837 624.286,302.17 620.5,304C 609.186,305.866 602.853,301.033 601.5,289.5C 601.358,282.104 602.358,275.271 604.5,269C 607.473,264.54 610.473,260.04 613.5,255.5C 614.85,254.05 616.516,253.383 618.5,253.5C 618.343,256.344 619.676,258.011 622.5,258.5C 626.45,260.96 630.45,260.96 634.5,258.5C 639.13,256.846 643.13,254.18 646.5,250.5C 644.725,249.043 642.725,247.876 640.5,247C 638.866,246.506 637.199,246.34 635.5,246.5C 632.642,245.834 629.642,245.167 626.5,244.5C 626.863,243.817 627.196,243.15 627.5,242.5C 634.931,237.585 642.264,232.419 649.5,227C 663.959,211.59 671.959,193.423 673.5,172.5C 674.483,168.702 674.817,164.702 674.5,160.5C 675.819,153.656 675.819,146.656 674.5,139.5C 673.52,142.086 673.187,144.753 673.5,147.5C 672.551,151.657 671.884,155.99 671.5,160.5C 668.517,176.617 662.683,191.617 654,205.5C 652.961,206.71 651.794,207.71 650.5,208.5C 645.061,214.812 638.561,219.812 631,223.5C 630.813,219.647 631.313,215.98 632.5,212.5C 633.823,201.993 633.823,191.326 632.5,180.5C 631.893,180.624 631.56,180.957 631.5,181.5C 630.275,194.671 627.108,207.338 622,219.5C 619.217,223.951 616.05,228.117 612.5,232C 601.041,237.295 592.374,245.462 586.5,256.5C 584.89,253.797 583.89,250.797 583.5,247.5C 580.979,231.139 573.812,217.139 562,205.5C 561.333,203.5 561.333,201.5 562,199.5C 563.473,195.221 565.473,191.221 568,187.5C 575.705,179.463 583.039,171.13 590,162.5C 594.792,149.799 599.792,137.132 605,124.5C 608.949,117.052 614.449,111.052 621.5,106.5C 624.603,104.46 627.936,102.793 631.5,101.5C 627.196,100.825 623.529,102.159 620.5,105.5C 604.967,115.558 594.467,129.558 589,147.5C 583.316,158.852 575.15,168.019 564.5,175C 559.582,179.412 555.249,184.245 551.5,189.5C 543.119,175.974 538.119,161.308 536.5,145.5C 535.973,135.7 536.806,126.034 539,116.5C 544.124,106.289 548.958,95.9553 553.5,85.5C 553.167,84.8333 552.833,84.1667 552.5,83.5C 551.515,85.772 550.681,88.1053 550,90.5C 543.936,99.5702 538.269,108.903 533,118.5C 530.154,125.895 528.654,133.562 528.5,141.5C 528.482,149.851 528.815,158.184 529.5,166.5C 529.294,169.495 529.96,172.162 531.5,174.5C 531.5,175.167 531.5,175.833 531.5,176.5C 532.008,179.176 532.175,181.843 532,184.5C 531.692,183.692 531.192,183.025 530.5,182.5C 529.304,182.846 529.304,183.346 530.5,184C 529.906,184.464 529.239,184.631 528.5,184.5C 506.56,181.245 504.893,185.411 523.5,197C 526.146,197.497 528.813,197.664 531.5,197.5C 533.288,197.215 534.955,197.548 536.5,198.5C 538.813,203.793 541.646,208.793 545,213.5C 546.113,214.305 547.279,214.972 548.5,215.5C 561.246,230.966 565.246,248.633 560.5,268.5C 559.479,272.98 558.813,277.647 558.5,282.5C 557.907,287.574 556.907,292.574 555.5,297.5C 553.648,274.964 544.648,255.797 528.5,240C 523.666,236.748 518.666,233.748 513.5,231C 504.111,217.286 498.777,202.119 497.5,185.5C 497.229,183.688 496.562,182.022 495.5,180.5C 495.167,181 494.833,181.5 494.5,182C 495.382,185.441 495.716,188.941 495.5,192.5C 495.185,202.647 496.185,212.647 498.5,222.5C 497.635,223.583 496.635,223.749 495.5,223C 478.743,213.638 467.576,199.805 462,181.5C 458.274,171.491 456.108,161.158 455.5,150.5C 455.76,146.652 455.094,142.985 453.5,139.5C 452.189,143.984 452.189,148.317 453.5,152.5C 453.5,152.833 453.5,153.167 453.5,153.5C 453.666,159.509 453.499,165.509 453,171.5C 452.094,168.879 451.594,169.046 451.5,172C 452.661,176.801 453.661,181.634 454.5,186.5C 453.637,188.872 452.471,188.872 451,186.5C 450.329,187.252 449.496,187.586 448.5,187.5C 445.994,186.25 443.327,185.584 440.5,185.5C 436.019,184.352 431.352,184.185 426.5,185C 424.026,185.037 422.026,185.87 420.5,187.5C 418.139,187.674 415.806,188.007 413.5,188.5C 420.221,198.626 429.721,204.626 442,206.5C 446.038,206.208 449.872,205.208 453.5,203.5C 456.188,202.976 457.688,201.309 458,198.5C 460.857,208.547 466.023,217.213 473.5,224.5C 474.689,225.429 476.022,225.762 477.5,225.5C 487.612,233.728 498.279,241.228 509.5,248C 525.682,262.561 532.182,280.728 529,302.5C 527.891,304.815 526.057,306.315 523.5,307C 520.167,307.667 516.833,307.667 513.5,307C 507.713,304.106 501.713,301.773 495.5,300C 490.421,287.167 483.088,275.834 473.5,266C 461.726,257.852 448.726,252.852 434.5,251C 428.012,248.259 422.012,244.759 416.5,240.5C 414.539,238.037 412.372,235.703 410,233.5C 410.552,236.906 412.385,239.572 415.5,241.5C 420.093,247.593 425.76,252.426 432.5,256C 439.868,259.341 447.201,262.674 454.5,266C 464.7,272.556 471.367,281.722 474.5,293.5C 474.5,294.5 474.5,295.5 474.5,296.5C 466.316,296.174 458.316,296.508 450.5,297.5C 444.5,297.833 438.5,298.167 432.5,298.5C 419.5,298.5 406.5,298.5 393.5,298.5C 375.916,295.541 360.583,288.041 347.5,276C 344.933,272.997 342.266,270.164 339.5,267.5C 337.417,264.349 335.084,261.349 332.5,258.5C 331.479,259.002 331.312,259.668 332,260.5C 334.031,263.355 336.197,266.022 338.5,268.5C 350.146,286.32 365.813,299.153 385.5,307C 390.708,308.802 396.041,309.969 401.5,310.5C 403.905,311.768 406.572,312.435 409.5,312.5C 431.64,312.807 453.64,314.64 475.5,318C 479.02,318.673 482.353,319.84 485.5,321.5C 472.41,331.435 457.743,337.435 441.5,339.5C 434.966,339.733 428.466,339.4 422,338.5C 421.167,338.833 420.333,339.167 419.5,339.5C 422.012,340.795 424.679,341.461 427.5,341.5C 442.922,344.458 458.255,343.958 473.5,340C 480.089,337.202 486.755,334.702 493.5,332.5C 496.43,331.701 499.43,331.368 502.5,331.5C 505.338,332.17 507.838,333.504 510,335.5C 513.082,338.659 515.416,342.325 517,346.5C 522.596,361.228 527.096,376.228 530.5,391.5C 530.41,394.152 531.076,396.485 532.5,398.5C 534.062,402.657 534.729,406.99 534.5,411.5C 534.294,414.495 534.96,417.162 536.5,419.5C 536.66,421.199 536.494,422.866 536,424.5C 530.585,428.656 524.418,430.823 517.5,431C 508.833,431.667 500.167,431.667 491.5,431C 490.978,430.439 490.645,429.772 490.5,429C 492.393,426.046 493.893,422.879 495,419.5C 496.441,418.74 497.941,418.074 499.5,417.5C 500.788,415.701 500.788,414.035 499.5,412.5C 498.791,411.596 497.791,411.263 496.5,411.5C 496.706,408.505 496.04,405.838 494.5,403.5C 493.26,402.027 492.26,400.36 491.5,398.5C 499.446,398.385 507.446,398.218 515.5,398C 520.223,396.957 522.056,394.124 521,389.5C 518.959,391.974 516.292,392.974 513,392.5C 507.879,392.028 503.046,390.528 498.5,388C 491.333,385.691 487.666,388.191 487.5,395.5C 481.302,393.817 474.969,393.151 468.5,393.5C 468.257,386.368 464.59,383.535 457.5,385C 454.554,385.806 451.888,387.139 449.5,389C 445.198,390.535 440.865,390.702 436.5,389.5C 436.137,388.817 435.804,388.15 435.5,387.5C 435.631,386.624 435.298,385.957 434.5,385.5C 433.534,387.396 433.201,389.396 433.5,391.5C 391.46,381.093 353.626,389.426 320,416.5C 304.014,403.385 287.181,402.219 269.5,413C 259.586,421.579 254.586,432.413 254.5,445.5C 253.167,445.5 251.833,445.5 250.5,445.5C 230.389,385.219 226.889,323.552 240,260.5C 265.993,158.03 326.16,82.8635 420.5,35C 540.921,-18.0609 654.921,-7.06086 762.5,68C 861.607,146.702 905.274,249.536 893.5,376.5C 886.026,372.39 878.359,368.557 870.5,365C 840.945,358.334 817.778,367.501 801,392.5C 794.786,406.237 792.619,420.404 794.5,435C 777.321,436.925 761.988,443.258 748.5,454C 741.254,460.741 734.588,467.908 728.5,475.5C 712.928,472.966 700.428,477.966 691,490.5C 688.928,493.971 687.428,497.638 686.5,501.5C 681.178,501.98 675.845,502.313 670.5,502.5C 670.686,495.119 670.186,487.786 669,480.5C 667.111,474.328 664.944,468.328 662.5,462.5 Z M 469.5,424.5 C 474.339,424.631 479.339,424.464 484.5,424C 479.734,429.767 474.734,429.934 469.5,424.5 Z"/></g>
<g><path style="opacity:1" fill="#0d9f57" d="M 563.5,32.5 C 564.496,32.4142 565.329,32.7476 566,33.5C 570.539,45.2945 570.539,56.9611 566,68.5C 558.673,78.3073 553.006,77.6406 549,66.5C 547.552,57.6235 549.552,49.6235 555,42.5C 557.669,39.0003 560.502,35.667 563.5,32.5 Z"/></g>
<g><path style="opacity:1" fill="#9c2e8c" d="M 648.5,55.5 C 650.5,55.5 652.5,55.5 654.5,55.5C 655.58,64.7095 652.913,72.5428 646.5,79C 642.605,80.2662 638.605,80.7662 634.5,80.5C 630.503,72.1966 632.169,65.3633 639.5,60C 642.592,58.4541 645.592,56.9541 648.5,55.5 Z"/></g>
<g><path style="opacity:1" fill="#fcfdfe" d="M 470.5,63.5 C 471.879,66.3442 473.879,68.8442 476.5,71C 478.5,71.3333 480.5,71.6667 482.5,72C 479.833,73 477.167,74 474.5,75C 473.113,77.045 471.946,79.2117 471,81.5C 470.934,78.7244 469.768,76.5577 467.5,75C 465.065,74.147 462.731,73.147 460.5,72C 466.509,72.1495 469.842,69.3162 470.5,63.5 Z"/></g>
<g><path style="opacity:1" fill="#fbe831" d="M 582.5,70.5 C 584.833,70.5 587.167,70.5 589.5,70.5C 586.706,80.133 581.039,87.633 572.5,93C 568.797,93.5787 565.131,93.412 561.5,92.5C 560.125,85.4179 562.458,79.9179 568.5,76C 573.017,73.4455 577.684,71.6121 582.5,70.5 Z"/></g>
<g><path style="opacity:1" fill="#9b2a8a" d="M 623.5,76.5 C 624.307,82.4638 624.64,88.4638 624.5,94.5C 622.901,99.2666 619.735,102.6 615,104.5C 612.981,102.812 611.314,100.812 610,98.5C 609.333,94.1667 609.333,89.8333 610,85.5C 612.27,80.9022 614.937,76.5689 618,72.5C 619.11,70.9632 620.61,70.2965 622.5,70.5C 622.833,72.5 623.167,74.5 623.5,76.5 Z"/></g>
<g><path style="opacity:1" fill="#ef8032" d="M 531.5,72.5 C 541.74,78.1139 545.073,86.2805 541.5,97C 536.537,97.7334 533.37,95.5667 532,90.5C 530.221,84.5574 530.054,78.5574 531.5,72.5 Z"/></g>
<g><path style="opacity:1" fill="#fbe82f" d="M 653.5,82.5 C 659.973,82.0806 666.306,82.7472 672.5,84.5C 667.082,93.865 659.082,99.1983 648.5,100.5C 639.73,100.582 637.563,96.9151 642,89.5C 645.225,85.9793 649.058,83.646 653.5,82.5 Z"/></g>
<g><path style="opacity:1" fill="#b67cb9" d="M 623.5,76.5 C 625.03,79.6952 625.696,83.1952 625.5,87C 625.497,89.6903 625.164,92.1903 624.5,94.5C 624.64,88.4638 624.307,82.4638 623.5,76.5 Z"/></g>
<g><path style="opacity:1" fill="#fce82d" d="M 469.5,92.5 C 470.365,100.466 470.698,108.466 470.5,116.5C 469.084,125.919 463.751,131.919 454.5,134.5C 448.906,130.614 446.239,125.114 446.5,118C 448.361,103.786 455.028,92.2855 466.5,83.5C 468.559,86.0382 469.559,89.0382 469.5,92.5 Z"/></g>
<g><path style="opacity:1" fill="#ef7f31" d="M 707.5,86.5 C 708.777,87.6936 709.444,89.3603 709.5,91.5C 709.232,94.5175 708.898,97.5175 708.5,100.5C 706.599,106.404 702.599,109.737 696.5,110.5C 690.64,110.805 687.974,107.971 688.5,102C 689.123,95.0334 692.79,90.3667 699.5,88C 702.063,86.9207 704.729,86.4207 707.5,86.5 Z"/></g>
<g><path style="opacity:1" fill="#91be4b" d="M 509.5,87.5 C 518.507,92.0074 525.34,98.6741 530,107.5C 531.801,122.393 526.801,125.393 515,116.5C 510.97,111.58 508.803,105.913 508.5,99.5C 508.183,95.2984 508.517,91.2984 509.5,87.5 Z"/></g>
<g><path style="opacity:1" fill="#acd08a" d="M 509.5,87.5 C 508.517,91.2984 508.183,95.2984 508.5,99.5C 507.189,95.3171 507.189,90.9838 508.5,86.5C 509.107,86.6236 509.44,86.9569 509.5,87.5 Z"/></g>
<g><path style="opacity:1" fill="#ef8033" d="M 591.5,91.5 C 596.435,94.3061 600.268,98.3061 603,103.5C 603.978,107.9 603.478,112.067 601.5,116C 596.94,116.806 593.774,114.973 592,110.5C 590.216,104.202 590.05,97.8683 591.5,91.5 Z"/></g>
<g><path style="opacity:1" fill="#e5c1a3" d="M 707.5,86.5 C 708.209,85.596 709.209,85.2627 710.5,85.5C 710.666,89.5138 710.499,93.5138 710,97.5C 709.768,98.7375 709.268,99.7375 708.5,100.5C 708.898,97.5175 709.232,94.5175 709.5,91.5C 709.444,89.3603 708.777,87.6936 707.5,86.5 Z"/></g>
<g><path style="opacity:1" fill="#e58590" d="M 572.5,102.5 C 568.994,101.502 565.328,101.502 561.5,102.5C 563.462,100.983 565.795,100.316 568.5,100.5C 570.167,100.833 571.833,101.167 573.5,101.5C 573.376,102.107 573.043,102.44 572.5,102.5 Z"/></g>
<g><path style="opacity:1" fill="#92be4c" d="M 671.5,98.5 C 673.716,99.2026 675.549,100.536 677,102.5C 679.667,107.167 682.333,111.833 685,116.5C 687.088,125.436 684.255,132.103 676.5,136.5C 670.567,135.068 666.734,131.401 665,125.5C 664.164,115.819 666.331,106.819 671.5,98.5 Z"/></g>
<g><path style="opacity:1" fill="#ea303c" d="M 572.5,102.5 C 570.047,109.878 565.713,116.045 559.5,121C 554.653,123.991 549.819,124.157 545,121.5C 543.419,115.938 544.919,111.438 549.5,108C 553.144,105.344 557.144,103.511 561.5,102.5C 565.328,101.502 568.994,101.502 572.5,102.5 Z"/></g>
<g><path style="opacity:1" fill="#87755b" d="M 621.5,106.5 C 621.5,105.833 621.167,105.5 620.5,105.5C 623.529,102.159 627.196,100.825 631.5,101.5C 627.936,102.793 624.603,104.46 621.5,106.5 Z"/></g>
<g><path style="opacity:1" fill="#fbfdfe" d="M 780.5,106.5 C 780.95,112.623 784.283,116.29 790.5,117.5C 785.275,118.391 781.942,121.391 780.5,126.5C 778.494,120.317 774.16,117.317 767.5,117.5C 775.292,117.697 779.625,114.03 780.5,106.5 Z"/></g>
<g><path style="opacity:1" fill="#f3ea68" d="M 469.5,92.5 C 470.268,93.2625 470.768,94.2625 471,95.5C 471.821,102.679 471.655,109.679 470.5,116.5C 470.698,108.466 470.365,100.466 469.5,92.5 Z"/></g>
<g><path style="opacity:1" fill="#fbe82f" d="M 628.5,110.5 C 637.571,110.202 644.571,113.869 649.5,121.5C 648.975,122.192 648.308,122.692 647.5,123C 641.388,123.909 635.388,123.576 629.5,122C 627.042,120.213 625.376,117.879 624.5,115C 625.344,112.993 626.677,111.493 628.5,110.5 Z"/></g>
<g><path style="opacity:1" fill="#16a9de" d="M 406.5,111.5 C 420.606,111.362 432.44,116.362 442,126.5C 443.29,130.73 443.79,135.064 443.5,139.5C 436.618,141.265 429.951,140.765 423.5,138C 415.425,130.677 409.759,121.844 406.5,111.5 Z"/></g>
<g><path style="opacity:1" fill="#0f9f57" d="M 572.5,138.5 C 572.347,132.131 572.68,125.797 573.5,119.5C 574.576,116.129 575.576,112.796 576.5,109.5C 577.552,109.351 578.552,109.517 579.5,110C 585.407,116.927 589.073,124.927 590.5,134C 589.582,140.01 586.748,144.843 582,148.5C 577.269,146.604 574.102,143.27 572.5,138.5 Z"/></g>
<g><path style="opacity:1" fill="#0ea057" d="M 708.5,114.5 C 713.5,114.5 718.5,114.5 723.5,114.5C 721.978,124.528 716.978,132.361 708.5,138C 696.137,141.265 691.303,136.765 694,124.5C 697.635,119.278 702.468,115.945 708.5,114.5 Z"/></g>
<g><path style="opacity:1" fill="#fbfdfe" d="M 364.5,119.5 C 366.058,126.816 370.725,130.65 378.5,131C 370.763,130.409 366.263,133.909 365,141.5C 363.91,138.99 362.743,136.49 361.5,134C 357.969,132.411 354.302,131.245 350.5,130.5C 353.447,129.679 356.447,129.179 359.5,129C 362.282,126.394 363.948,123.227 364.5,119.5 Z"/></g>
<g><path style="opacity:1" fill="#5f3c1b" d="M 536.5,145.5 C 535.672,139.347 535.172,133.013 535,126.5C 532.298,130.372 530.965,134.705 531,139.5C 530.667,139.167 530.333,138.833 530,138.5C 529.768,139.737 529.268,140.737 528.5,141.5C 528.654,133.562 530.154,125.895 533,118.5C 538.269,108.903 543.936,99.5702 550,90.5C 550.681,88.1053 551.515,85.772 552.5,83.5C 552.833,84.1667 553.167,84.8333 553.5,85.5C 548.958,95.9553 544.124,106.289 539,116.5C 536.806,126.034 535.973,135.7 536.5,145.5 Z"/></g>
<g><path style="opacity:1" fill="#9b2b8b" d="M 489.5,123.5 C 503.233,125.104 514.066,131.438 522,142.5C 522.828,146.871 522.661,151.205 521.5,155.5C 511.293,157.815 503.46,154.482 498,145.5C 493.882,138.642 491.048,131.309 489.5,123.5 Z"/></g>
<g><path style="opacity:1" fill="#16a9de" d="M 741.5,125.5 C 743.167,125.5 744.833,125.5 746.5,125.5C 746.893,132.596 745.393,139.263 742,145.5C 737.601,150.411 732.267,151.745 726,149.5C 723.325,143.04 724.158,137.206 728.5,132C 732.657,129.255 736.99,127.088 741.5,125.5 Z"/></g>
<g><path style="opacity:1" fill="#5cc099" d="M 573.5,119.5 C 572.68,125.797 572.347,132.131 572.5,138.5C 571.836,136.022 571.503,133.355 571.5,130.5C 571.294,126.531 571.961,122.865 573.5,119.5 Z"/></g>
<g><path style="opacity:1" fill="#e82280" d="M 619.5,126.5 C 623.167,126.5 626.833,126.5 630.5,126.5C 628.367,133.815 624.367,139.982 618.5,145C 613.18,147.624 607.68,148.124 602,146.5C 600.426,140.397 602.26,135.564 607.5,132C 611.451,129.855 615.451,128.021 619.5,126.5 Z"/></g>
<g><path style="opacity:0.953" fill="#593407" d="M 620.5,105.5 C 621.167,105.5 621.5,105.833 621.5,106.5C 614.449,111.052 608.949,117.052 605,124.5C 599.792,137.132 594.792,149.799 590,162.5C 583.039,171.13 575.705,179.463 568,187.5C 565.473,191.221 563.473,195.221 562,199.5C 561.333,201.5 561.333,203.5 562,205.5C 573.812,217.139 580.979,231.139 583.5,247.5C 583.177,251.226 583.511,254.893 584.5,258.5C 585.522,258.145 586.189,257.478 586.5,256.5C 592.374,245.462 601.041,237.295 612.5,232C 616.05,228.117 619.217,223.951 622,219.5C 627.108,207.338 630.275,194.671 631.5,181.5C 632.494,191.653 632.828,201.986 632.5,212.5C 631.313,215.98 630.813,219.647 631,223.5C 638.561,219.812 645.061,214.812 650.5,208.5C 651.794,207.71 652.961,206.71 654,205.5C 662.683,191.617 668.517,176.617 671.5,160.5C 672.222,160.082 672.722,159.416 673,158.5C 673.499,163.155 673.666,167.821 673.5,172.5C 671.959,193.423 663.959,211.59 649.5,227C 642.264,232.419 634.931,237.585 627.5,242.5C 611.123,251.074 601.79,264.574 599.5,283C 599.802,285.4 600.468,287.566 601.5,289.5C 602.853,301.033 609.186,305.866 620.5,304C 624.286,302.17 628.286,300.837 632.5,300C 636.701,291.094 641.534,282.594 647,274.5C 652.677,267.482 659.511,261.982 667.5,258C 678.272,254.974 688.938,251.641 699.5,248C 705.392,244.893 710.725,241.059 715.5,236.5C 716.167,236.5 716.5,236.833 716.5,237.5C 712.003,242.83 707.003,247.663 701.5,252C 692.446,257.194 683.112,261.861 673.5,266C 663.514,273.129 656.847,282.629 653.5,294.5C 652.596,295.209 652.263,296.209 652.5,297.5C 658.833,297.5 665.167,297.5 671.5,297.5C 680.837,297.745 690.171,298.078 699.5,298.5C 710.836,301.107 722.169,301.107 733.5,298.5C 736.391,297.597 739.391,297.264 742.5,297.5C 744.262,297.357 745.929,297.691 747.5,298.5C 748.386,297.675 748.719,296.675 748.5,295.5C 752.211,296.095 755.878,295.428 759.5,293.5C 760.167,293.833 760.833,294.167 761.5,294.5C 759.03,295.757 756.697,297.257 754.5,299C 753.748,299.671 753.414,300.504 753.5,301.5C 746.826,305.003 739.826,307.67 732.5,309.5C 728.837,309.952 725.17,310.452 721.5,311C 720.584,311.278 719.918,311.778 719.5,312.5C 711.514,313.099 703.514,313.432 695.5,313.5C 685.965,313.424 676.631,314.091 667.5,315.5C 658.754,315.628 650.421,317.461 642.5,321C 651.913,328.874 662.58,334.374 674.5,337.5C 677.01,337.927 679.343,338.593 681.5,339.5C 680.761,339.369 680.094,339.536 679.5,340C 683.586,342.053 687.92,342.887 692.5,342.5C 679.488,344.246 666.488,343.413 653.5,340C 646.827,337.321 640.16,334.654 633.5,332C 630.5,331.333 627.5,331.333 624.5,332C 617.668,335.835 612.501,341.335 609,348.5C 604.076,360.528 598.41,372.194 592,383.5C 584.946,400.825 581.113,418.825 580.5,437.5C 580.335,440.85 580.502,444.183 581,447.5C 586.712,450.882 592.879,452.715 599.5,453C 605.833,453.667 612.167,453.667 618.5,453C 611.158,447.791 606.158,440.957 603.5,432.5C 601.813,431.082 599.98,429.749 598,428.5C 596.72,423.079 598.887,421.079 604.5,422.5C 604.66,420.801 604.494,419.134 604,417.5C 601.277,414.443 598.944,411.11 597,407.5C 594.964,404.104 595.131,400.938 597.5,398C 600.871,396.109 604.538,394.942 608.5,394.5C 609.193,393.482 609.859,392.482 610.5,391.5C 621.65,390.924 632.65,390.257 643.5,389.5C 649.173,389.415 654.506,388.082 659.5,385.5C 661.369,387.635 662.036,390.302 661.5,393.5C 659.816,397.692 657.149,401.192 653.5,404C 655.722,407.165 657.055,410.665 657.5,414.5C 658.873,414.343 660.207,414.51 661.5,415C 664.418,418.165 663.918,420.665 660,422.5C 659.476,427.594 658.476,432.594 657,437.5C 654.859,441.444 653.025,445.444 651.5,449.5C 641.021,455.96 642.021,457.293 654.5,453.5C 655.908,454.061 657.408,454.395 659,454.5C 668.885,453.491 675.719,448.491 679.5,439.5C 681.071,440.309 682.738,440.643 684.5,440.5C 685.497,440.47 686.164,440.97 686.5,442C 685.427,443.416 685.427,444.75 686.5,446C 685.584,446.278 684.918,446.778 684.5,447.5C 683.391,448.29 682.058,448.79 680.5,449C 675.351,453.485 669.684,457.152 663.5,460C 662.748,460.671 662.414,461.504 662.5,462.5C 656.362,463.819 650.529,465.819 645,468.5C 640.895,481.382 634.228,492.716 625,502.5C 624.24,506.819 623.573,511.152 623,515.5C 621.556,517.155 619.722,517.822 617.5,517.5C 616.679,520.554 616.679,523.554 617.5,526.5C 671.823,502.825 728.823,489.158 788.5,485.5C 797.509,492.676 805.676,500.676 813,509.5C 817.161,514.476 820.661,519.81 823.5,525.5C 745.766,512.006 670.099,519.506 596.5,548C 585.583,552.639 574.75,557.473 564,562.5C 498.976,531.026 430.142,516.526 357.5,519C 339.742,520.642 322.075,522.809 304.5,525.5C 313.858,510.096 325.525,496.763 339.5,485.5C 393.044,488.803 444.711,500.136 494.5,519.5C 494.833,519.333 495.167,519.167 495.5,519C 493.777,516.057 492.777,512.89 492.5,509.5C 489.15,509.665 485.817,509.498 482.5,509C 479.96,506.795 477.793,504.295 476,501.5C 475.086,485.504 469.753,471.17 460,458.5C 458.31,454.46 456.643,450.46 455,446.5C 438.336,443.751 423.836,436.585 411.5,425C 403.334,424.657 400.334,420.491 402.5,412.5C 405.066,412.344 407.566,412.678 410,413.5C 412.02,412.968 412.853,411.635 412.5,409.5C 413.822,409.33 414.989,409.663 416,410.5C 416.744,419.589 421.577,425.422 430.5,428C 441.874,431.837 453.54,433.503 465.5,433C 459.591,427.894 456.758,421.394 457,413.5C 455.536,412.541 454.703,411.208 454.5,409.5C 456.244,407.759 457.577,405.759 458.5,403.5C 460.5,402.167 462.167,400.5 463.5,398.5C 464.404,397.791 464.737,396.791 464.5,395.5C 462.473,395.338 460.473,395.505 458.5,396C 457.944,396.383 457.611,396.883 457.5,397.5C 455.219,397.077 453.552,397.744 452.5,399.5C 445.472,400.649 439.305,398.982 434,394.5C 433.517,393.552 433.351,392.552 433.5,391.5C 434.167,390.167 434.833,388.833 435.5,387.5C 435.804,388.15 436.137,388.817 436.5,389.5C 440.865,390.702 445.198,390.535 449.5,389C 451.888,387.139 454.554,385.806 457.5,385C 464.59,383.535 468.257,386.368 468.5,393.5C 474.969,393.151 481.302,393.817 487.5,395.5C 487.666,388.191 491.333,385.691 498.5,388C 503.046,390.528 507.879,392.028 513,392.5C 516.292,392.974 518.959,391.974 521,389.5C 522.056,394.124 520.223,396.957 515.5,398C 507.446,398.218 499.446,398.385 491.5,398.5C 492.26,400.36 493.26,402.027 494.5,403.5C 494.963,406.482 495.296,409.482 495.5,412.5C 496.833,412.5 498.167,412.5 499.5,412.5C 500.788,414.035 500.788,415.701 499.5,417.5C 497.941,418.074 496.441,418.74 495,419.5C 493.893,422.879 492.393,426.046 490.5,429C 490.645,429.772 490.978,430.439 491.5,431C 500.167,431.667 508.833,431.667 517.5,431C 524.418,430.823 530.585,428.656 536,424.5C 536.494,422.866 536.66,421.199 536.5,419.5C 536.435,416.572 535.768,413.905 534.5,411.5C 534.729,406.99 534.062,402.657 532.5,398.5C 532.59,395.848 531.924,393.515 530.5,391.5C 527.096,376.228 522.596,361.228 517,346.5C 515.416,342.325 513.082,338.659 510,335.5C 507.838,333.504 505.338,332.17 502.5,331.5C 500.034,330.366 497.367,330.199 494.5,331C 493.944,331.383 493.611,331.883 493.5,332.5C 486.755,334.702 480.089,337.202 473.5,340C 458.255,343.958 442.922,344.458 427.5,341.5C 432.167,340.833 436.833,340.167 441.5,339.5C 457.743,337.435 472.41,331.435 485.5,321.5C 482.353,319.84 479.02,318.673 475.5,318C 453.64,314.64 431.64,312.807 409.5,312.5C 407.162,310.96 404.495,310.294 401.5,310.5C 396.041,309.969 390.708,308.802 385.5,307C 365.813,299.153 350.146,286.32 338.5,268.5C 338.5,267.833 338.833,267.5 339.5,267.5C 342.266,270.164 344.933,272.997 347.5,276C 360.583,288.041 375.916,295.541 393.5,298.5C 406.491,300.926 419.491,300.926 432.5,298.5C 438.5,298.167 444.5,297.833 450.5,297.5C 458.833,297.5 467.167,297.5 475.5,297.5C 475.768,295.901 475.434,294.568 474.5,293.5C 471.367,281.722 464.7,272.556 454.5,266C 447.201,262.674 439.868,259.341 432.5,256C 425.76,252.426 420.093,247.593 415.5,241.5C 415.5,240.833 415.833,240.5 416.5,240.5C 422.012,244.759 428.012,248.259 434.5,251C 448.726,252.852 461.726,257.852 473.5,266C 483.088,275.834 490.421,287.167 495.5,300C 501.713,301.773 507.713,304.106 513.5,307C 516.833,307.667 520.167,307.667 523.5,307C 526.057,306.315 527.891,304.815 529,302.5C 532.182,280.728 525.682,262.561 509.5,248C 498.279,241.228 487.612,233.728 477.5,225.5C 466.056,213.046 458.889,198.379 456,181.5C 455.26,172.004 454.426,162.671 453.5,153.5C 453.5,153.167 453.5,152.833 453.5,152.5C 453.131,150.007 453.797,149.34 455.5,150.5C 456.108,161.158 458.274,171.491 462,181.5C 467.576,199.805 478.743,213.638 495.5,223C 496.635,223.749 497.635,223.583 498.5,222.5C 496.185,212.647 495.185,202.647 495.5,192.5C 496.167,190.167 496.833,187.833 497.5,185.5C 498.777,202.119 504.111,217.286 513.5,231C 518.666,233.748 523.666,236.748 528.5,240C 544.648,255.797 553.648,274.964 555.5,297.5C 556.907,292.574 557.907,287.574 558.5,282.5C 560.211,278.119 560.877,273.453 560.5,268.5C 565.246,248.633 561.246,230.966 548.5,215.5C 540.867,203.245 535.2,190.245 531.5,176.5C 531.5,175.833 531.5,175.167 531.5,174.5C 531.435,171.572 530.768,168.905 529.5,166.5C 528.815,158.184 528.482,149.851 528.5,141.5C 529.268,140.737 529.768,139.737 530,138.5C 530.333,138.833 530.667,139.167 531,139.5C 530.965,134.705 532.298,130.372 535,126.5C 535.172,133.013 535.672,139.347 536.5,145.5C 538.119,161.308 543.119,175.974 551.5,189.5C 555.249,184.245 559.582,179.412 564.5,175C 575.15,168.019 583.316,158.852 589,147.5C 594.467,129.558 604.967,115.558 620.5,105.5 Z M 469.5,424.5 C 474.734,429.934 479.734,429.767 484.5,424C 479.339,424.464 474.339,424.631 469.5,424.5 Z M 603.5,432.5 C 606.158,440.957 611.158,447.791 618.5,453C 612.167,453.667 605.833,453.667 599.5,453C 592.879,452.715 586.712,450.882 581,447.5C 580.502,444.183 580.335,440.85 580.5,437.5C 587.67,433.931 595.336,432.265 603.5,432.5 Z M 619.5,437.5 C 625.333,439.232 631.333,439.899 637.5,439.5C 638.71,439.932 639.71,440.599 640.5,441.5C 637.585,445.641 633.585,447.141 628.5,446C 625,443.666 622,440.832 619.5,437.5 Z M 537.5,455.5 C 536.916,463.984 535.749,472.317 534,480.5C 524.607,475.97 516.274,469.97 509,462.5C 506.442,457.323 504.608,451.99 503.5,446.5C 503.611,445.883 503.944,445.383 504.5,445C 517.487,442.94 528.487,446.44 537.5,455.5 Z M 651.5,449.5 C 652.488,450.795 653.488,452.128 654.5,453.5C 642.021,457.293 641.021,455.96 651.5,449.5 Z M 580.5,455.5 C 587.691,459.619 595.358,462.453 603.5,464C 605.94,465.774 607.606,468.108 608.5,471C 606.059,476.048 603.225,480.881 600,485.5C 599.51,486.793 599.343,488.127 599.5,489.5C 595.476,490.038 591.476,490.705 587.5,491.5C 586.947,495.456 586.114,495.456 585,491.5C 583.006,479.55 581.506,467.55 580.5,455.5 Z M 532.5,488.5 C 532.143,492.263 531.31,495.93 530,499.5C 528.082,498.458 526.249,497.292 524.5,496C 527.692,493.972 530.359,491.472 532.5,488.5 Z M 508.5,501.5 C 514.158,504.61 520.158,506.944 526.5,508.5C 524.32,515.195 521.32,521.528 517.5,527.5C 513.506,522.666 509.673,517.666 506,512.5C 505.689,510.444 505.189,508.444 504.5,506.5C 506.552,505.389 507.886,503.723 508.5,501.5 Z M 594.5,506.5 C 597.833,506.5 601.167,506.5 604.5,506.5C 604.336,509.187 604.503,511.854 605,514.5C 609.079,519.11 609.579,524.277 606.5,530C 602.903,534.913 600.07,534.413 598,528.5C 594.868,521.909 592.034,515.242 589.5,508.5C 591.265,508.811 592.932,508.144 594.5,506.5 Z"/></g>
<g><path style="opacity:1" fill="#0c9f56" d="M 562.5,143.5 C 563.254,148.463 563.587,153.463 563.5,158.5C 561.951,164.385 558.284,168.385 552.5,170.5C 546.94,167.211 544.607,162.211 545.5,155.5C 546.512,145.807 550.512,137.474 557.5,130.5C 560.148,134.443 561.815,138.777 562.5,143.5 Z"/></g>
<g><path style="opacity:1" fill="#e1a9b4" d="M 472.5,136.5 C 473.209,135.596 474.209,135.263 475.5,135.5C 475.813,139.042 475.479,142.375 474.5,145.5C 475.055,141.988 474.388,138.988 472.5,136.5 Z"/></g>
<g><path style="opacity:1" fill="#ef8031" d="M 648.5,135.5 C 649.931,135.881 650.764,136.881 651,138.5C 653.833,150.651 650.999,161.151 642.5,170C 636.67,174.426 632.837,173.26 631,166.5C 630.333,162.833 630.333,159.167 631,155.5C 634.923,147.082 640.756,140.416 648.5,135.5 Z"/></g>
<g><path style="opacity:1" fill="#ea313c" d="M 472.5,136.5 C 474.388,138.988 475.055,141.988 474.5,145.5C 473.12,148.774 471.62,152.107 470,155.5C 468.259,156.758 466.426,157.758 464.5,158.5C 462.708,158.634 461.042,158.301 459.5,157.5C 457.628,150.718 459.628,145.218 465.5,141C 467.717,139.277 470.05,137.777 472.5,136.5 Z"/></g>
<g><path style="opacity:1" fill="#a29e8f" d="M 455.5,150.5 C 453.797,149.34 453.131,150.007 453.5,152.5C 452.189,148.317 452.189,143.984 453.5,139.5C 455.094,142.985 455.76,146.652 455.5,150.5 Z"/></g>
<g><path style="opacity:1" fill="#988f7b" d="M 674.5,160.5 C 674.818,155.968 674.485,151.634 673.5,147.5C 673.187,144.753 673.52,142.086 674.5,139.5C 675.819,146.656 675.819,153.656 674.5,160.5 Z"/></g>
<g><path style="opacity:1" fill="#e7ae84" d="M 700.5,148.5 C 703.024,147.2 705.691,147.2 708.5,148.5C 708.376,149.107 708.043,149.44 707.5,149.5C 705.393,148.532 703.059,148.198 700.5,148.5 Z"/></g>
<g><path style="opacity:1" fill="#0c9f56" d="M 479.5,144.5 C 489.788,148.617 495.788,156.117 497.5,167C 498.025,176.18 494.359,178.513 486.5,174C 483.067,170.896 480.9,167.063 480,162.5C 479.501,156.509 479.334,150.509 479.5,144.5 Z"/></g>
<g><path style="opacity:1" fill="#fbe830" d="M 412.5,146.5 C 420.288,147.555 427.621,150.055 434.5,154C 437.372,156.537 439.872,159.37 442,162.5C 445.069,172.429 441.569,176.262 431.5,174C 421.116,167.763 414.783,158.596 412.5,146.5 Z"/></g>
<g><path style="opacity:1" fill="#9ad8c9" d="M 562.5,143.5 C 563.991,146.186 564.657,149.186 564.5,152.5C 564.495,154.696 564.162,156.696 563.5,158.5C 563.587,153.463 563.254,148.463 562.5,143.5 Z"/></g>
<g><path style="opacity:1" fill="#ef8033" d="M 700.5,148.5 C 703.059,148.198 705.393,148.532 707.5,149.5C 704.086,158.413 698.086,164.913 689.5,169C 686.833,169.667 684.167,169.667 681.5,169C 678.85,164.807 679.016,160.64 682,156.5C 687.039,151.231 693.205,148.564 700.5,148.5 Z"/></g>
<g><path style="opacity:1" fill="#775d3e" d="M 673.5,147.5 C 674.485,151.634 674.818,155.968 674.5,160.5C 674.817,164.702 674.483,168.702 673.5,172.5C 673.666,167.821 673.499,163.155 673,158.5C 672.722,159.416 672.222,160.082 671.5,160.5C 671.884,155.99 672.551,151.657 673.5,147.5 Z"/></g>
<g><path style="opacity:1" fill="#91be4b" d="M 739.5,154.5 C 743.226,154.177 746.893,154.511 750.5,155.5C 748.136,162.561 744.969,169.228 741,175.5C 734.51,182.658 727.01,184.158 718.5,180C 715.134,170.679 717.8,163.679 726.5,159C 730.715,156.763 735.048,155.263 739.5,154.5 Z"/></g>
<g><path style="opacity:1" fill="#e48793" d="M 459.5,157.5 C 461.042,158.301 462.708,158.634 464.5,158.5C 463.903,159.139 463.07,159.472 462,159.5C 460.624,159.316 459.791,158.649 459.5,157.5 Z"/></g>
<g><path style="opacity:1" fill="#fbe833" d="M 607.5,152.5 C 619.229,158.315 625.062,167.648 625,180.5C 623.381,185.631 620.215,186.798 615.5,184C 611.619,181.072 609.119,177.239 608,172.5C 607.5,165.842 607.334,159.175 607.5,152.5 Z"/></g>
<g><path style="opacity:1" fill="#ef8439" d="M 474.5,159.5 C 475.75,159.577 476.583,160.244 477,161.5C 478.528,168.49 477.028,174.657 472.5,180C 470.031,182.022 467.865,181.855 466,179.5C 465.333,176.167 465.333,172.833 466,169.5C 468.669,166 471.502,162.667 474.5,159.5 Z"/></g>
<g><path style="opacity:1" fill="#ea2d3b" d="M 759.5,190.5 C 756.167,190.5 752.833,190.5 749.5,190.5C 749.5,187.167 749.5,183.833 749.5,180.5C 751.053,175.424 754.053,171.257 758.5,168C 763.051,165.258 767.885,163.092 773,161.5C 775.549,160.481 778.049,160.481 780.5,161.5C 777.951,171.769 772.951,180.602 765.5,188C 763.359,188.573 761.359,189.406 759.5,190.5 Z"/></g>
<g><path style="opacity:1" fill="#9b2c8c" d="M 797.5,167.5 C 800.389,170.256 802.556,173.589 804,177.5C 808.458,188.274 808.458,198.941 804,209.5C 801.852,212.236 799.186,214.236 796,215.5C 789.163,211.499 785.663,205.499 785.5,197.5C 786.755,186.334 790.755,176.334 797.5,167.5 Z"/></g>
<g><path style="opacity:1" fill="#9e9887" d="M 529.5,166.5 C 530.768,168.905 531.435,171.572 531.5,174.5C 529.96,172.162 529.294,169.495 529.5,166.5 Z"/></g>
<g><path style="opacity:1" fill="#fafdfe" d="M 359.5,172.5 C 361.101,174.855 362.768,177.355 364.5,180C 372.297,180.551 372.297,181.551 364.5,183C 362.457,184.811 360.957,186.978 360,189.5C 359.55,187.481 358.717,185.648 357.5,184C 354.673,183.299 352.006,182.299 349.5,181C 355.49,181.171 358.823,178.338 359.5,172.5 Z"/></g>
<g><path style="opacity:1" fill="#47b98a" d="M 694.5,180.5 C 699.348,179.186 704.348,179.186 709.5,180.5C 709.376,181.107 709.043,181.44 708.5,181.5C 704.03,180.514 699.363,180.181 694.5,180.5 Z"/></g>
<g><path style="opacity:1" fill="#8d8067" d="M 497.5,185.5 C 496.833,187.833 496.167,190.167 495.5,192.5C 495.716,188.941 495.382,185.441 494.5,182C 494.833,181.5 495.167,181 495.5,180.5C 496.562,182.022 497.229,183.688 497.5,185.5 Z"/></g>
<g><path style="opacity:1" fill="#099f55" d="M 694.5,180.5 C 699.363,180.181 704.03,180.514 708.5,181.5C 704.554,189.779 698.554,196.113 690.5,200.5C 686.566,201.36 682.566,201.693 678.5,201.5C 675.951,201.063 674.618,199.563 674.5,197C 677.081,186.588 683.748,181.088 694.5,180.5 Z"/></g>
<g><path style="opacity:1" fill="#e5808b" d="M 440.5,185.5 C 433.736,185.387 427.07,186.054 420.5,187.5C 422.026,185.87 424.026,185.037 426.5,185C 431.352,184.185 436.019,184.352 440.5,185.5 Z"/></g>
<g><path style="opacity:1" fill="#ea2c3a" d="M 528.5,184.5 C 533.238,186.643 535.405,190.31 535,195.5C 533.698,196.085 532.531,196.751 531.5,197.5C 528.813,197.664 526.146,197.497 523.5,197C 504.893,185.411 506.56,181.245 528.5,184.5 Z"/></g>
<g><path style="opacity:1" fill="#ea2d3b" d="M 440.5,185.5 C 443.327,185.584 445.994,186.25 448.5,187.5C 451.472,189.641 453.972,192.308 456,195.5C 456.982,198.775 456.149,201.441 453.5,203.5C 449.872,205.208 446.038,206.208 442,206.5C 429.721,204.626 420.221,198.626 413.5,188.5C 415.806,188.007 418.139,187.674 420.5,187.5C 427.07,186.054 433.736,185.387 440.5,185.5 Z"/></g>
<g><path style="opacity:1" fill="#d2dddd" d="M 453.5,153.5 C 454.426,162.671 455.26,172.004 456,181.5C 458.889,198.379 466.056,213.046 477.5,225.5C 476.022,225.762 474.689,225.429 473.5,224.5C 466.023,217.213 460.857,208.547 458,198.5C 457.688,201.309 456.188,202.976 453.5,203.5C 456.149,201.441 456.982,198.775 456,195.5C 453.972,192.308 451.472,189.641 448.5,187.5C 449.496,187.586 450.329,187.252 451,186.5C 452.471,188.872 453.637,188.872 454.5,186.5C 453.661,181.634 452.661,176.801 451.5,172C 451.594,169.046 452.094,168.879 453,171.5C 453.499,165.509 453.666,159.509 453.5,153.5 Z"/></g>
<g><path style="opacity:1" fill="#ef8032" d="M 481.5,184.5 C 483.017,184.511 484.184,185.177 485,186.5C 489.616,192.991 490.616,199.991 488,207.5C 485.333,211.5 482.667,211.5 480,207.5C 476.522,199.604 477.022,191.938 481.5,184.5 Z"/></g>
<g><path style="opacity:1" fill="#fbe831" d="M 650.5,208.5 C 645.302,208.143 641.802,205.476 640,200.5C 637.374,180.071 641.374,178.405 652,195.5C 652.85,200.021 652.35,204.355 650.5,208.5 Z"/></g>
<g><path style="opacity:1" fill="#1faadf" d="M 578.5,189.5 C 582.833,189.5 587.167,189.5 591.5,189.5C 588.426,201.424 580.926,206.091 569,203.5C 568.333,201.5 568.333,199.5 569,197.5C 571.772,194.217 574.939,191.55 578.5,189.5 Z"/></g>
<g><path style="opacity:1" fill="#e1c5cf" d="M 749.5,180.5 C 749.5,183.833 749.5,187.167 749.5,190.5C 752.833,190.5 756.167,190.5 759.5,190.5C 756.103,191.198 752.603,191.865 749,192.5C 748.188,188.311 748.355,184.311 749.5,180.5 Z"/></g>
<g><path style="opacity:1" fill="#18aade" d="M 387.5,193.5 C 397.227,197.05 404.727,203.384 410,212.5C 411.196,218.052 410.363,223.219 407.5,228C 400.435,228.716 395.268,225.883 392,219.5C 388.1,211.282 386.6,202.615 387.5,193.5 Z"/></g>
<g><path style="opacity:1" fill="#9f9988" d="M 631.5,181.5 C 631.56,180.957 631.893,180.624 632.5,180.5C 633.823,191.326 633.823,201.993 632.5,212.5C 632.828,201.986 632.494,191.653 631.5,181.5 Z"/></g>
<g><path style="opacity:1" fill="#85d0b9" d="M 690.5,200.5 C 690.389,201.117 690.056,201.617 689.5,202C 685.642,202.81 681.976,202.643 678.5,201.5C 682.566,201.693 686.566,201.36 690.5,200.5 Z"/></g>
<g><path style="opacity:1" fill="#ea313e" d="M 734.5,198.5 C 735.649,198.791 736.316,199.624 736.5,201C 737.973,207.891 737.807,214.724 736,221.5C 732.958,227.504 728.125,230.337 721.5,230C 716.461,223.561 716.294,217.061 721,210.5C 725.099,205.892 729.599,201.892 734.5,198.5 Z"/></g>
<g><path style="opacity:1" fill="#d3dfde" d="M 531.5,176.5 C 535.2,190.245 540.867,203.245 548.5,215.5C 547.279,214.972 546.113,214.305 545,213.5C 541.646,208.793 538.813,203.793 536.5,198.5C 534.955,197.548 533.288,197.215 531.5,197.5C 532.531,196.751 533.698,196.085 535,195.5C 535.405,190.31 533.238,186.643 528.5,184.5C 529.239,184.631 529.906,184.464 530.5,184C 529.304,183.346 529.304,182.846 530.5,182.5C 531.192,183.025 531.692,183.692 532,184.5C 532.175,181.843 532.008,179.176 531.5,176.5 Z"/></g>
<g><path style="opacity:1" fill="#e8207f" d="M 768.5,202.5 C 770.453,208.074 771.12,214.074 770.5,220.5C 770.406,232.753 764.406,239.253 752.5,240C 746.983,231.583 747.483,223.417 754,215.5C 758.406,210.589 763.24,206.255 768.5,202.5 Z"/></g>
<g><path style="opacity:1" fill="#19a9de" d="M 535.5,205.5 C 536.5,205.5 537.5,205.5 538.5,205.5C 538.62,212.398 536.787,218.732 533,224.5C 524.11,229.997 520.444,227.664 522,217.5C 525.454,212.206 529.954,208.206 535.5,205.5 Z"/></g>
<g><path style="opacity:1" fill="#20abdf" d="M 594.5,207.5 C 595.496,207.414 596.329,207.748 597,208.5C 601.511,218.236 601.511,227.902 597,237.5C 591.536,243.47 587.202,242.803 584,235.5C 582.791,229.114 583.791,223.114 587,217.5C 589.266,213.958 591.766,210.625 594.5,207.5 Z"/></g>
<g><path style="opacity:1" fill="#e75864" d="M 307.5,206.5 C 305.539,213.087 304.872,220.087 305.5,227.5C 304.508,220.352 304.175,213.019 304.5,205.5C 305.791,205.263 306.791,205.596 307.5,206.5 Z"/></g>
<g><path style="opacity:1" fill="#ea2e3c" d="M 307.5,206.5 C 319.587,213.092 328.42,222.758 334,235.5C 335.364,242.049 334.198,248.049 330.5,253.5C 320.451,254.888 313.285,250.888 309,241.5C 307.008,237.04 305.841,232.373 305.5,227.5C 304.872,220.087 305.539,213.087 307.5,206.5 Z"/></g>
<g><path style="opacity:1" fill="#e81d7f" d="M 823.5,205.5 C 827.094,218.476 825.594,231.143 819,243.5C 814.126,250.854 807.292,254.354 798.5,254C 793.369,245.619 793.202,237.119 798,228.5C 805.125,219.203 813.625,211.536 823.5,205.5 Z"/></g>
<g><path style="opacity:1" fill="#19aade" d="M 672.5,212.5 C 673.376,212.369 674.043,212.702 674.5,213.5C 678.334,222.431 679.501,231.765 678,241.5C 675.935,247.733 671.768,251.733 665.5,253.5C 663.007,252.239 661.174,250.239 660,247.5C 657.511,239.396 658.511,231.73 663,224.5C 665.934,220.288 669.101,216.288 672.5,212.5 Z"/></g>
<g><path style="opacity:1" fill="#fbe832" d="M 450.5,212.5 C 451.5,212.5 452.5,212.5 453.5,212.5C 455.209,224.163 452.209,234.33 444.5,243C 440.933,245.631 437.433,245.798 434,243.5C 432.079,238.484 432.079,233.484 434,228.5C 438.734,222.264 444.234,216.931 450.5,212.5 Z"/></g>
<g><path style="opacity:1" fill="#1daadf" d="M 704.5,215.5 C 705.833,215.5 707.167,215.5 708.5,215.5C 709.755,226.816 705.755,235.65 696.5,242C 693.854,242.497 691.187,242.664 688.5,242.5C 685.953,234.851 687.62,228.351 693.5,223C 697.233,220.477 700.899,217.977 704.5,215.5 Z"/></g>
<g><path style="opacity:1" fill="#e373b2" d="M 768.5,202.5 C 769.209,201.596 770.209,201.263 771.5,201.5C 771.823,208.022 771.49,214.355 770.5,220.5C 771.12,214.074 770.453,208.074 768.5,202.5 Z"/></g>
<g><path style="opacity:1" fill="#0d9f56" d="M 358.5,229.5 C 359.822,229.33 360.989,229.663 362,230.5C 367.162,238.827 370.329,247.827 371.5,257.5C 371.533,266.438 367.7,273.105 360,277.5C 351.884,273.103 348.384,266.27 349.5,257C 349.515,253.097 350.015,249.264 351,245.5C 353.416,240.065 355.916,234.731 358.5,229.5 Z"/></g>
<g><path style="opacity:1" fill="#9e9887" d="M 716.5,237.5 C 716.5,236.833 716.167,236.5 715.5,236.5C 716.322,234.272 717.655,233.605 719.5,234.5C 718.452,235.548 717.452,236.548 716.5,237.5 Z"/></g>
<g><path style="opacity:1" fill="#7a634a" d="M 416.5,240.5 C 415.833,240.5 415.5,240.833 415.5,241.5C 412.385,239.572 410.552,236.906 410,233.5C 412.372,235.703 414.539,238.037 416.5,240.5 Z"/></g>
<g><path style="opacity:1" fill="#1eabdf" d="M 773.5,236.5 C 781.397,243.678 784.897,252.678 784,263.5C 782.722,268.442 779.722,271.775 775,273.5C 765.998,267.829 763.331,259.829 767,249.5C 769.164,245.171 771.331,240.838 773.5,236.5 Z"/></g>
<g><path style="opacity:1" fill="#9c2e8c" d="M 467.5,240.5 C 476.441,238.648 483.941,240.981 490,247.5C 490.667,248.5 490.667,249.5 490,250.5C 483.867,256.537 476.7,258.037 468.5,255C 463.446,253.148 459.112,250.315 455.5,246.5C 459.561,244.47 463.561,242.47 467.5,240.5 Z"/></g>
<g><path style="opacity:1" fill="#9b2d8c" d="M 720.5,239.5 C 727.894,239.009 734.894,240.342 741.5,243.5C 735.286,250.274 727.619,253.108 718.5,252C 716.36,251.027 714.693,249.527 713.5,247.5C 715.169,244.17 717.502,241.503 720.5,239.5 Z"/></g>
<g><path style="opacity:1" fill="#9c2f8d" d="M 386.5,240.5 C 395.358,239.402 403.692,240.902 411.5,245C 415.415,247.99 417.248,251.823 417,256.5C 411.034,260.803 404.534,261.636 397.5,259C 391.075,255.206 385.575,250.373 381,244.5C 380.312,243.668 380.479,243.002 381.5,242.5C 383.336,241.972 385.003,241.306 386.5,240.5 Z"/></g>
<g><path style="opacity:1" fill="#9b2d8c" d="M 635.5,246.5 C 637.199,246.34 638.866,246.506 640.5,247C 642.725,247.876 644.725,249.043 646.5,250.5C 643.13,254.18 639.13,256.846 634.5,258.5C 630.5,258.5 626.5,258.5 622.5,258.5C 619.676,258.011 618.343,256.344 618.5,253.5C 622.198,246.989 627.865,244.655 635.5,246.5 Z"/></g>
<g><path style="opacity:1" fill="#968c78" d="M 583.5,247.5 C 583.89,250.797 584.89,253.797 586.5,256.5C 586.189,257.478 585.522,258.145 584.5,258.5C 583.511,254.893 583.177,251.226 583.5,247.5 Z"/></g>
<g><path style="opacity:1" fill="#9c2d8c" d="M 817.5,251.5 C 826.019,251.037 834.352,252.037 842.5,254.5C 837.103,262.067 830.103,267.567 821.5,271C 817.167,271.667 812.833,271.667 808.5,271C 804.335,269.517 802.835,266.684 804,262.5C 807.244,257.07 811.744,253.403 817.5,251.5 Z"/></g>
<g><path style="opacity:1" fill="#ae64aa" d="M 622.5,258.5 C 626.5,258.5 630.5,258.5 634.5,258.5C 630.45,260.96 626.45,260.96 622.5,258.5 Z"/></g>
<g><path style="opacity:1" fill="#ef7f31" d="M 752.5,255.5 C 753.75,255.577 754.583,256.244 755,257.5C 758.605,267.719 758.272,277.719 754,287.5C 748.199,295.412 743.533,295.078 740,286.5C 738.186,278.325 739.853,270.991 745,264.5C 747.508,261.469 750.008,258.469 752.5,255.5 Z"/></g>
<g><path style="opacity:1" fill="#e57480" d="M 500.5,257.5 C 501.209,256.596 502.209,256.263 503.5,256.5C 503.813,260.042 503.479,263.375 502.5,266.5C 503.055,262.988 502.388,259.988 500.5,257.5 Z"/></g>
<g><path style="opacity:1" fill="#968d7a" d="M 793.5,263.5 C 793.5,263.167 793.5,262.833 793.5,262.5C 793.685,260.804 794.519,259.471 796,258.5C 796.249,260.668 795.416,262.335 793.5,263.5 Z"/></g>
<g><path style="opacity:1" fill="#ea2e3b" d="M 500.5,257.5 C 502.388,259.988 503.055,262.988 502.5,266.5C 501.727,275.94 496.727,280.94 487.5,281.5C 486.56,277.537 486.393,273.537 487,269.5C 490.428,264.235 494.928,260.235 500.5,257.5 Z"/></g>
<g><path style="opacity:1" fill="#92be4c" d="M 304.5,259.5 C 312.784,258.538 319.617,261.204 325,267.5C 322.437,279.241 314.937,284.908 302.5,284.5C 298.445,284.425 294.445,283.925 290.5,283C 286.979,281.326 283.313,280.16 279.5,279.5C 280.779,275.698 283.112,272.531 286.5,270C 292.146,265.684 298.146,262.184 304.5,259.5 Z"/></g>
<g><path style="opacity:1" fill="#d0dcdf" d="M 627.5,242.5 C 627.196,243.15 626.863,243.817 626.5,244.5C 629.642,245.167 632.642,245.834 635.5,246.5C 627.865,244.655 622.198,246.989 618.5,253.5C 616.516,253.383 614.85,254.05 613.5,255.5C 610.473,260.04 607.473,264.54 604.5,269C 602.358,275.271 601.358,282.104 601.5,289.5C 600.468,287.566 599.802,285.4 599.5,283C 601.79,264.574 611.123,251.074 627.5,242.5 Z"/></g>
<g><path style="opacity:1" fill="#7c6549" d="M 339.5,267.5 C 338.833,267.5 338.5,267.833 338.5,268.5C 336.197,266.022 334.031,263.355 332,260.5C 331.312,259.668 331.479,259.002 332.5,258.5C 335.084,261.349 337.417,264.349 339.5,267.5 Z"/></g>
<g><path style="opacity:1" fill="#ef8032" d="M 432.5,264.5 C 438.806,263.575 444.473,264.908 449.5,268.5C 450.695,271.973 449.695,274.806 446.5,277C 443.219,279.874 439.386,281.041 435,280.5C 428.238,280.796 422.072,279.129 416.5,275.5C 421.346,270.964 426.679,267.297 432.5,264.5 Z"/></g>
<g><path style="opacity:1" fill="#1caadf" d="M 679.5,264.5 C 689.529,264.523 698.195,267.856 705.5,274.5C 697.751,280.104 689.084,282.271 679.5,281C 668.885,275.407 668.885,269.907 679.5,264.5 Z"/></g>
<g><path style="opacity:1" fill="#fbe835" d="M 388.5,267.5 C 389.5,267.5 390.5,267.5 391.5,267.5C 391.865,270.625 392.698,273.625 394,276.5C 394.887,281.072 394.22,285.405 392,289.5C 389.6,293.687 386.6,294.354 383,291.5C 381.543,287.259 381.209,282.926 382,278.5C 384.19,274.778 386.356,271.111 388.5,267.5 Z"/></g>
<g><path style="opacity:1" fill="#9b2c8c" d="M 707.5,295.5 C 706.676,292.236 706.342,288.902 706.5,285.5C 710.977,276.699 717.977,270.699 727.5,267.5C 728.226,275.191 726.726,282.524 723,289.5C 720.795,292.04 718.295,294.207 715.5,296C 712.633,296.801 709.966,296.634 707.5,295.5 Z"/></g>
<g><path style="opacity:1" fill="#816b4e" d="M 560.5,268.5 C 560.877,273.453 560.211,278.119 558.5,282.5C 558.813,277.647 559.479,272.98 560.5,268.5 Z"/></g>
<g><path style="opacity:1" fill="#9c318d" d="M 797.5,274.5 C 804.961,273.876 811.628,275.876 817.5,280.5C 814.26,283.955 810.26,286.122 805.5,287C 799.214,288.973 794.547,287.139 791.5,281.5C 792.802,278.534 794.802,276.201 797.5,274.5 Z"/></g>
<g><path style="opacity:1" fill="#593311" d="M 793.5,262.5 C 793.5,262.833 793.5,263.167 793.5,263.5C 783.711,279.957 770.378,292.623 753.5,301.5C 753.414,300.504 753.748,299.671 754.5,299C 756.697,297.257 759.03,295.757 761.5,294.5C 760.833,294.167 760.167,293.833 759.5,293.5C 755.878,295.428 752.211,296.095 748.5,295.5C 748.719,296.675 748.386,297.675 747.5,298.5C 745.929,297.691 744.262,297.357 742.5,297.5C 746.824,295.217 751.491,293.383 756.5,292C 770.753,284.581 783.086,274.748 793.5,262.5 Z"/></g>
<g><path style="opacity:1" fill="#c3a5d0" d="M 706.5,285.5 C 706.342,288.902 706.676,292.236 707.5,295.5C 706.883,295.389 706.383,295.056 706,294.5C 705.195,291.304 705.362,288.304 706.5,285.5 Z"/></g>
<g><path style="opacity:1" fill="#1daadf" d="M 775.5,289.5 C 786.408,288.704 794.575,293.037 800,302.5C 801.748,307.251 803.581,311.918 805.5,316.5C 802.155,317.559 798.822,317.392 795.5,316C 786.376,313.855 779.542,308.689 775,300.5C 774.245,296.745 774.411,293.078 775.5,289.5 Z"/></g>
<g><path style="opacity:1" fill="#ea2e3b" d="M 331.5,291.5 C 339.371,290.182 346.205,292.182 352,297.5C 353.187,299.044 353.52,300.711 353,302.5C 347.996,309.023 341.496,311.19 333.5,309C 326.163,307.827 319.83,304.661 314.5,299.5C 319.7,295.665 325.366,292.998 331.5,291.5 Z"/></g>
<g><path style="opacity:1" fill="#88795f" d="M 474.5,293.5 C 475.434,294.568 475.768,295.901 475.5,297.5C 467.167,297.5 458.833,297.5 450.5,297.5C 458.316,296.508 466.316,296.174 474.5,296.5C 474.5,295.5 474.5,294.5 474.5,293.5 Z"/></g>
<g><path style="opacity:1" fill="#837156" d="M 653.5,294.5 C 659.265,296.147 665.265,297.147 671.5,297.5C 665.167,297.5 658.833,297.5 652.5,297.5C 652.263,296.209 652.596,295.209 653.5,294.5 Z"/></g>
<g><path style="opacity:1" fill="#afb0a5" d="M 393.5,298.5 C 406.5,298.5 419.5,298.5 432.5,298.5C 419.491,300.926 406.491,300.926 393.5,298.5 Z"/></g>
<g><path style="opacity:1" fill="#afb0a4" d="M 699.5,298.5 C 710.833,298.5 722.167,298.5 733.5,298.5C 722.169,301.107 710.836,301.107 699.5,298.5 Z"/></g>
<g><path style="opacity:1" fill="#fbe831" d="M 750.5,306.5 C 754.514,306.334 758.514,306.501 762.5,307C 773.406,311.993 780.739,320.159 784.5,331.5C 772.542,333.007 761.709,330.34 752,323.5C 748.018,319.204 746.685,314.204 748,308.5C 748.995,307.934 749.828,307.267 750.5,306.5 Z"/></g>
<g><path style="opacity:1" fill="#91be4c" d="M 360.5,307.5 C 364.546,307.15 368.38,307.817 372,309.5C 372.667,312.5 372.667,315.5 372,318.5C 364.639,328.926 354.472,333.593 341.5,332.5C 344.477,321.534 350.81,313.201 360.5,307.5 Z"/></g>
<g><path style="opacity:1" fill="#aeafa5" d="M 732.5,309.5 C 728.458,311.237 724.124,312.237 719.5,312.5C 719.918,311.778 720.584,311.278 721.5,311C 725.17,310.452 728.837,309.952 732.5,309.5 Z"/></g>
<g><path style="opacity:1" fill="#9d9785" d="M 401.5,310.5 C 404.495,310.294 407.162,310.96 409.5,312.5C 406.572,312.435 403.905,311.768 401.5,310.5 Z"/></g>
<g><path style="opacity:1" fill="#a9a89c" d="M 695.5,313.5 C 686.393,315.225 677.06,315.892 667.5,315.5C 676.631,314.091 685.965,313.424 695.5,313.5 Z"/></g>
<g><path style="opacity:1" fill="#ef7f30" d="M 381.5,313.5 C 389.001,314.302 396.001,316.802 402.5,321C 405.04,323.205 407.207,325.705 409,328.5C 409.667,331.833 409.667,335.167 409,338.5C 404.464,339.907 399.964,339.74 395.5,338C 387.847,331.526 383.181,323.36 381.5,313.5 Z"/></g>
<g><path style="opacity:1" fill="#e45ca3" d="M 729.5,318.5 C 733.683,317.189 738.016,317.189 742.5,318.5C 742.376,319.107 742.043,319.44 741.5,319.5C 737.702,318.517 733.702,318.183 729.5,318.5 Z"/></g>
<g><path style="opacity:1" fill="#e38b97" d="M 451.5,319.5 C 448.43,319.368 445.43,319.701 442.5,320.5C 442.611,319.883 442.944,319.383 443.5,319C 446.367,318.199 449.034,318.366 451.5,319.5 Z"/></g>
<g><path style="opacity:1" fill="#fbfdfe" d="M 281.5,317.5 C 282.303,321.04 283.97,324.207 286.5,327C 288.715,327.17 290.715,327.837 292.5,329C 286.137,329.031 282.637,332.197 282,338.5C 281.354,332.188 277.854,329.021 271.5,329C 278.233,328.101 281.567,324.268 281.5,317.5 Z"/></g>
<g><path style="opacity:1" fill="#e81f7f" d="M 729.5,318.5 C 733.702,318.183 737.702,318.517 741.5,319.5C 739.414,327.834 734.747,334.334 727.5,339C 722.771,339.996 718.271,339.496 714,337.5C 712.293,325.697 717.46,319.363 729.5,318.5 Z"/></g>
<g><path style="opacity:1" fill="#ea2938" d="M 451.5,319.5 C 456.481,321.921 456.814,325.088 452.5,329C 450.807,329.847 449.14,330.68 447.5,331.5C 442.821,331.666 438.155,331.499 433.5,331C 432.584,330.722 431.918,330.222 431.5,329.5C 434.29,325.372 437.957,322.372 442.5,320.5C 445.43,319.701 448.43,319.368 451.5,319.5 Z"/></g>
<g><path style="opacity:1" fill="#ea303c" d="M 666.5,332.5 C 659.342,331.366 656.009,327.366 656.5,320.5C 667.367,317.274 675.367,320.607 680.5,330.5C 675.868,331.376 671.201,332.043 666.5,332.5 Z"/></g>
<g><path style="opacity:1" fill="#d3dfdf" d="M 667.5,315.5 C 662.702,316.964 657.702,318.131 652.5,319C 653.563,320.188 654.897,320.688 656.5,320.5C 656.009,327.366 659.342,331.366 666.5,332.5C 669.036,334.402 671.703,336.069 674.5,337.5C 662.58,334.374 651.913,328.874 642.5,321C 650.421,317.461 658.754,315.628 667.5,315.5 Z"/></g>
<g><path style="opacity:1" fill="#897961" d="M 502.5,331.5 C 499.43,331.368 496.43,331.701 493.5,332.5C 493.611,331.883 493.944,331.383 494.5,331C 497.367,330.199 500.034,330.366 502.5,331.5 Z"/></g>
<g><path style="opacity:1" fill="#e66874" d="M 431.5,329.5 C 431.918,330.222 432.584,330.722 433.5,331C 438.155,331.499 442.821,331.666 447.5,331.5C 442.684,332.65 437.684,332.816 432.5,332C 430.641,331.399 430.308,330.566 431.5,329.5 Z"/></g>
<g><path style="opacity:1" fill="#fcfdfe" d="M 833.5,330.5 C 834.241,334.172 835.407,337.839 837,341.5C 840.222,343.674 843.722,345.174 847.5,346C 839.046,346.454 834.546,350.954 834,359.5C 833.5,351 829,346.5 820.5,346C 829.639,344.9 833.972,339.733 833.5,330.5 Z"/></g>
<g><path style="opacity:1" fill="#e8227f" d="M 762.5,348.5 C 764.708,358.947 761.875,360.281 754,352.5C 753.329,353.252 752.496,353.586 751.5,353.5C 742.568,349.631 738.902,342.965 740.5,333.5C 752.055,331.965 759.388,336.965 762.5,348.5 Z"/></g>
<g><path style="opacity:1" fill="#857357" d="M 441.5,339.5 C 436.833,340.167 432.167,340.833 427.5,341.5C 424.679,341.461 422.012,340.795 419.5,339.5C 420.333,339.167 421.167,338.833 422,338.5C 428.466,339.4 434.966,339.733 441.5,339.5 Z"/></g>
<g><path style="opacity:1" fill="#4d2404" d="M 681.5,339.5 C 683.167,339.5 684.833,339.5 686.5,339.5C 691.167,340.167 695.833,340.833 700.5,341.5C 697.833,341.833 695.167,342.167 692.5,342.5C 687.92,342.887 683.586,342.053 679.5,340C 680.094,339.536 680.761,339.369 681.5,339.5 Z"/></g>
<g><path style="opacity:1" fill="#857358" d="M 700.5,341.5 C 695.833,340.833 691.167,340.167 686.5,339.5C 692.702,339.727 698.869,339.394 705,338.5C 705.833,338.833 706.667,339.167 707.5,339.5C 705.223,340.421 702.89,341.087 700.5,341.5 Z"/></g>
<g><path style="opacity:1" fill="#0d9f56" d="M 384.5,343.5 C 400.714,343.422 403.381,349.256 392.5,361C 389.689,362.825 386.689,364.158 383.5,365C 375.92,365.813 368.42,365.647 361,364.5C 366.106,354.567 373.939,347.567 384.5,343.5 Z"/></g>
<g><path style="opacity:1" fill="#0b9f56" d="M 431.5,345.5 C 435.514,345.334 439.514,345.501 443.5,346C 447.797,347.758 449.297,350.925 448,355.5C 444.245,364.256 437.745,369.756 428.5,372C 421.564,373.409 414.564,374.242 407.5,374.5C 411.846,361.819 419.846,352.153 431.5,345.5 Z"/></g>
<g><path style="opacity:1" fill="#13a057" d="M 699.5,345.5 C 707.894,345.379 713.394,349.379 716,357.5C 716.696,360.478 717.196,363.478 717.5,366.5C 704.973,364.98 698.973,357.98 699.5,345.5 Z"/></g>
<g><path style="opacity:1" fill="#0e9f56" d="M 684.5,373.5 C 685.01,376.388 684.344,378.721 682.5,380.5C 672.861,376.694 666.027,370.027 662,360.5C 659.085,348.081 663.251,344.581 674.5,350C 681.621,356.189 684.954,364.023 684.5,373.5 Z"/></g>
<g><path style="opacity:1" fill="#92bf4e" d="M 463.5,348.5 C 465.144,348.286 466.644,348.62 468,349.5C 470.288,355.198 469.621,360.531 466,365.5C 457.035,376.558 453.702,374.558 456,359.5C 456.764,354.582 459.264,350.916 463.5,348.5 Z"/></g>
<g><path style="opacity:1" fill="#e7569b" d="M 762.5,348.5 C 764.175,351.507 764.841,354.84 764.5,358.5C 759.536,358.184 755.203,356.517 751.5,353.5C 752.496,353.586 753.329,353.252 754,352.5C 761.875,360.281 764.708,358.947 762.5,348.5 Z"/></g>
<g><path style="opacity:1" fill="#7dceb4" d="M 684.5,373.5 C 685.473,375.948 685.806,378.615 685.5,381.5C 684.209,381.737 683.209,381.404 682.5,380.5C 684.344,378.721 685.01,376.388 684.5,373.5 Z"/></g>
<g><path style="opacity:1" fill="#9f9a89" d="M 435.5,387.5 C 434.833,388.833 434.167,390.167 433.5,391.5C 433.201,389.396 433.534,387.396 434.5,385.5C 435.298,385.957 435.631,386.624 435.5,387.5 Z"/></g>
<g><path style="opacity:1" fill="#9b9483" d="M 659.5,385.5 C 660.209,384.596 661.209,384.263 662.5,384.5C 662.81,387.713 662.477,390.713 661.5,393.5C 662.036,390.302 661.369,387.635 659.5,385.5 Z"/></g>
<g><path style="opacity:1" fill="#87755c" d="M 643.5,389.5 C 632.65,390.257 621.65,390.924 610.5,391.5C 611.263,390.732 612.263,390.232 613.5,390C 623.494,389.5 633.494,389.334 643.5,389.5 Z"/></g>
<g><path style="opacity:1" fill="#a29e8e" d="M 530.5,391.5 C 531.924,393.515 532.59,395.848 532.5,398.5C 531.076,396.485 530.41,394.152 530.5,391.5 Z"/></g>
<g><path style="opacity:1" fill="#887a60" d="M 463.5,398.5 C 463.38,397.414 462.713,396.747 461.5,396.5C 460.151,396.846 458.817,397.179 457.5,397.5C 457.611,396.883 457.944,396.383 458.5,396C 460.473,395.505 462.473,395.338 464.5,395.5C 464.737,396.791 464.404,397.791 463.5,398.5 Z"/></g>
<g><path style="opacity:0.746" fill="#def2f5" d="M 463.5,398.5 C 462.167,400.5 460.5,402.167 458.5,403.5C 456.795,401.808 454.795,400.475 452.5,399.5C 453.552,397.744 455.219,397.077 457.5,397.5C 458.817,397.179 460.151,396.846 461.5,396.5C 462.713,396.747 463.38,397.414 463.5,398.5 Z"/></g>
<g><path style="opacity:1" fill="#99907d" d="M 494.5,403.5 C 496.04,405.838 496.706,408.505 496.5,411.5C 497.791,411.263 498.791,411.596 499.5,412.5C 498.167,412.5 496.833,412.5 495.5,412.5C 495.296,409.482 494.963,406.482 494.5,403.5 Z"/></g>
<g><path style="opacity:1" fill="#b2b5ad" d="M 484.5,410.5 C 485.978,410.238 487.311,410.571 488.5,411.5C 487.833,411.833 487.167,412.167 486.5,412.5C 485.287,412.253 484.62,411.586 484.5,410.5 Z"/></g>
<g><path style="opacity:1" fill="#a19c8b" d="M 534.5,411.5 C 535.768,413.905 536.435,416.572 536.5,419.5C 534.96,417.162 534.294,414.495 534.5,411.5 Z"/></g>
<g><path style="opacity:1" fill="#9b9381" d="M 616.5,418.5 C 620.224,417.773 622.891,419.106 624.5,422.5C 624.167,422.833 623.833,423.167 623.5,423.5C 620.636,419.614 617.636,419.614 614.5,423.5C 614.167,423.167 613.833,422.833 613.5,422.5C 614.524,421.148 615.524,419.815 616.5,418.5 Z"/></g>
<g><path style="opacity:1" fill="#9c9684" d="M 641.5,418.5 C 645.224,417.773 647.891,419.106 649.5,422.5C 649.167,422.833 648.833,423.167 648.5,423.5C 645.423,419.538 642.256,419.538 639,423.5C 638.751,421.332 639.584,419.665 641.5,418.5 Z"/></g>
<g><path style="opacity:0.817" fill="#d7eaf0" d="M 537.5,455.5 C 528.487,446.44 517.487,442.94 504.5,445C 503.944,445.383 503.611,445.883 503.5,446.5C 502.201,444.847 502.534,443.347 504.5,442C 507.167,441.667 509.833,441.333 512.5,441C 521.342,438.068 530.009,434.902 538.5,431.5C 538.801,439.586 538.467,447.586 537.5,455.5 Z"/></g>
<g><path style="opacity:1" fill="#d3dcd8" d="M 640.5,441.5 C 639.71,440.599 638.71,439.932 637.5,439.5C 639.111,437.905 641.111,436.739 643.5,436C 644.635,435.251 645.635,435.417 646.5,436.5C 645.101,439.054 643.101,440.72 640.5,441.5 Z"/></g>
<g><path style="opacity:1" fill="#9c9482" d="M 684.5,440.5 C 685.209,439.596 686.209,439.263 687.5,439.5C 687.5,442.167 687.5,444.833 687.5,447.5C 686.5,447.5 685.5,447.5 684.5,447.5C 684.918,446.778 685.584,446.278 686.5,446C 685.427,444.75 685.427,443.416 686.5,442C 686.164,440.97 685.497,440.47 684.5,440.5 Z"/></g>
<g><path style="opacity:0.85" fill="#00a8de" d="M 380.5,527.5 C 445.022,525.442 506.189,538.442 564,566.5C 645.538,527.03 730.038,518.196 817.5,540C 823.849,542.175 830.182,544.508 836.5,547C 842.04,555.788 845.707,565.288 847.5,575.5C 834.644,570.046 821.644,564.88 808.5,560C 725.309,534.856 643.809,539.356 564,573.5C 488.358,541.629 411.191,535.796 332.5,556C 314.971,562.009 297.637,568.509 280.5,575.5C 282.622,566.97 285.455,558.636 289,550.5C 289.948,548.43 291.448,546.93 293.5,546C 322.062,536.391 351.062,530.224 380.5,527.5 Z"/></g>
<g><path style="opacity:0.853" fill="#e8157e" d="M 412.5,550.5 C 465.101,548.903 515.601,557.903 564,577.5C 621,554.727 680.167,546.561 741.5,553C 779.657,558.608 815.657,570.608 849.5,589C 850.893,590.171 851.727,591.671 852,593.5C 853.221,601.806 853.554,610.14 853,618.5C 784.774,572.854 709.607,556.021 627.5,568C 605.936,571.645 584.769,576.812 564,583.5C 489.461,558.087 414.961,558.253 340.5,584C 317.354,592.99 295.521,604.49 275,618.5C 274.562,609.091 275.228,599.758 277,590.5C 319.053,566.655 364.22,553.322 412.5,550.5 Z"/></g>
<g><path style="opacity:0.84" fill="#90be49" d="M 448.5,570.5 C 487.884,569.482 526.384,574.482 564,585.5C 637.812,563.377 710.645,565.877 782.5,593C 807.789,603.726 830.955,617.893 852,635.5C 851.992,643.726 850.825,651.726 848.5,659.5C 846.833,659.5 845.167,659.5 843.5,659.5C 843.719,658.325 843.386,657.325 842.5,656.5C 785.632,606.44 718.965,581.44 642.5,581.5C 628.146,582.001 613.812,582.834 599.5,584C 587.612,585.983 575.779,588.15 564,590.5C 489.386,573.038 417.553,580.538 348.5,613C 325.711,624.964 304.711,639.464 285.5,656.5C 284.614,657.325 284.281,658.325 284.5,659.5C 282.833,659.5 281.167,659.5 279.5,659.5C 277.982,651.5 276.816,643.5 276,635.5C 326.337,594.997 383.837,573.33 448.5,570.5 Z"/></g>
</svg>
